<?xml version="1.0" encoding="UTF-8" standalone="no"?>
<!-- Created with Inkscape (http://www.inkscape.org/) -->

<svg
   xmlns:dc="http://purl.org/dc/elements/1.1/"
   xmlns:cc="http://creativecommons.org/ns#"
   xmlns:rdf="http://www.w3.org/1999/02/22-rdf-syntax-ns#"
   xmlns:svg="http://www.w3.org/2000/svg"
   xmlns="http://www.w3.org/2000/svg"
   xmlns:sodipodi="http://sodipodi.sourceforge.net/DTD/sodipodi-0.dtd"
   xmlns:inkscape="http://www.inkscape.org/namespaces/inkscape"
   version="1.1"
   id="svg118120"
   xml:space="preserve"
   width="666.66669"
   height="666.66669"
   viewBox="0 0 666.66669 666.66669"
   sodipodi:docname="sun-sunglasses-publicdomainvectors.org.svg"
   inkscape:version="0.92.4 (5da689c313, 2019-01-14)"><metadata
     id="metadata118126"><rdf:RDF><cc:Work
         rdf:about=""><dc:format>image/svg+xml</dc:format><dc:type
           rdf:resource="http://purl.org/dc/dcmitype/StillImage" /><dc:title></dc:title></cc:Work></rdf:RDF></metadata><defs
     id="defs118124"><clipPath
       clipPathUnits="userSpaceOnUse"
       id="clipPath118136"><path
         d="M 0,500 H 500 V 0 H 0 Z"
         id="path118134"
         inkscape:connector-curvature="0" /></clipPath><radialGradient
       fx="0"
       fy="0"
       cx="0"
       cy="0"
       r="1"
       gradientUnits="userSpaceOnUse"
       gradientTransform="matrix(155.00023,0,0,-155.00023,250,254)"
       spreadMethod="pad"
       id="radialGradient118156"><stop
         style="stop-opacity:1;stop-color:#f7d61e"
         offset="0"
         id="stop118150" /><stop
         style="stop-opacity:1;stop-color:#f7d61e"
         offset="0.58185239"
         id="stop118152" /><stop
         style="stop-opacity:1;stop-color:#ed7e1c"
         offset="1"
         id="stop118154" /></radialGradient><clipPath
       clipPathUnits="userSpaceOnUse"
       id="clipPath118166"><path
         d="M 150.82,198.33 H 349.18 V 141.9 H 150.82 Z"
         id="path118164"
         inkscape:connector-curvature="0" /></clipPath><clipPath
       clipPathUnits="userSpaceOnUse"
       id="clipPath118170"><path
         d="M 150.82,198.33 H 349.18 V 141.9 H 150.82 Z"
         id="path118168"
         inkscape:connector-curvature="0" /></clipPath><clipPath
       clipPathUnits="userSpaceOnUse"
       id="clipPath118174"><path
         d="M 150.82,198.33 H 349.18 V 142.525 H 150.82 Z"
         id="path118172"
         inkscape:connector-curvature="0" /></clipPath><clipPath
       clipPathUnits="userSpaceOnUse"
       id="clipPath118178"><path
         d="M 150.82,198.33 H 349.18 V 143.15 H 150.82 Z"
         id="path118176"
         inkscape:connector-curvature="0" /></clipPath><clipPath
       clipPathUnits="userSpaceOnUse"
       id="clipPath118182"><path
         d="M 150.82,198.33 H 349.18 V 143.775 H 150.82 Z"
         id="path118180"
         inkscape:connector-curvature="0" /></clipPath><clipPath
       clipPathUnits="userSpaceOnUse"
       id="clipPath118186"><path
         d="M 150.82,198.33 H 349.18 V 144.4 H 150.82 Z"
         id="path118184"
         inkscape:connector-curvature="0" /></clipPath><clipPath
       clipPathUnits="userSpaceOnUse"
       id="clipPath118190"><path
         d="M 150.82,198.33 H 349.18 V 145.025 H 150.82 Z"
         id="path118188"
         inkscape:connector-curvature="0" /></clipPath><clipPath
       clipPathUnits="userSpaceOnUse"
       id="clipPath118194"><path
         d="M 150.82,198.33 H 349.18 V 145.65 H 150.82 Z"
         id="path118192"
         inkscape:connector-curvature="0" /></clipPath><clipPath
       clipPathUnits="userSpaceOnUse"
       id="clipPath118198"><path
         d="M 150.82,198.33 H 349.18 V 146.275 H 150.82 Z"
         id="path118196"
         inkscape:connector-curvature="0" /></clipPath><clipPath
       clipPathUnits="userSpaceOnUse"
       id="clipPath118202"><path
         d="M 150.82,198.33 H 349.18 V 146.9 H 150.82 Z"
         id="path118200"
         inkscape:connector-curvature="0" /></clipPath><clipPath
       clipPathUnits="userSpaceOnUse"
       id="clipPath118206"><path
         d="M 150.82,198.33 H 349.18 V 147.525 H 150.82 Z"
         id="path118204"
         inkscape:connector-curvature="0" /></clipPath><clipPath
       clipPathUnits="userSpaceOnUse"
       id="clipPath118210"><path
         d="M 150.82,198.33 H 349.18 V 148.15 H 150.82 Z"
         id="path118208"
         inkscape:connector-curvature="0" /></clipPath><clipPath
       clipPathUnits="userSpaceOnUse"
       id="clipPath118214"><path
         d="M 150.82,198.33 H 349.18 V 148.775 H 150.82 Z"
         id="path118212"
         inkscape:connector-curvature="0" /></clipPath><clipPath
       clipPathUnits="userSpaceOnUse"
       id="clipPath118218"><path
         d="M 150.82,198.33 H 349.18 V 149.4 H 150.82 Z"
         id="path118216"
         inkscape:connector-curvature="0" /></clipPath><clipPath
       clipPathUnits="userSpaceOnUse"
       id="clipPath118222"><path
         d="M 150.82,198.33 H 349.18 V 150.025 H 150.82 Z"
         id="path118220"
         inkscape:connector-curvature="0" /></clipPath><clipPath
       clipPathUnits="userSpaceOnUse"
       id="clipPath118226"><path
         d="M 150.82,198.33 H 349.18 V 150.65 H 150.82 Z"
         id="path118224"
         inkscape:connector-curvature="0" /></clipPath><clipPath
       clipPathUnits="userSpaceOnUse"
       id="clipPath118230"><path
         d="M 150.82,198.33 H 349.18 V 151.275 H 150.82 Z"
         id="path118228"
         inkscape:connector-curvature="0" /></clipPath><clipPath
       clipPathUnits="userSpaceOnUse"
       id="clipPath118234"><path
         d="M 150.82,198.33 H 349.18 V 151.9 H 150.82 Z"
         id="path118232"
         inkscape:connector-curvature="0" /></clipPath><clipPath
       clipPathUnits="userSpaceOnUse"
       id="clipPath118420"><path
         d="M 163.667,391 H 336.333 V 313 H 163.667 Z"
         id="path118418"
         inkscape:connector-curvature="0" /></clipPath><clipPath
       clipPathUnits="userSpaceOnUse"
       id="clipPath118424"><path
         d="M 163.667,391 H 336.333 V 313 H 163.667 Z"
         id="path118422"
         inkscape:connector-curvature="0" /></clipPath><clipPath
       clipPathUnits="userSpaceOnUse"
       id="clipPath118428"><path
         d="m 336.333,352 c 0,-21.539 -38.652,-39 -86.333,-39 -47.681,0 -86.333,17.461 -86.333,39 0,21.539 38.652,39 86.333,39 47.681,0 86.333,-17.461 86.333,-39"
         id="path118426"
         inkscape:connector-curvature="0" /></clipPath><clipPath
       clipPathUnits="userSpaceOnUse"
       id="clipPath118432"><path
         d="M -24324,24824 H 8442 V -7942 h -32766 z"
         id="path118430"
         inkscape:connector-curvature="0" /></clipPath><clipPath
       clipPathUnits="userSpaceOnUse"
       id="clipPath118436"><path
         d="M -24324,24824 H 8442 V -7942 h -32766 z"
         id="path118434"
         inkscape:connector-curvature="0" /></clipPath><mask
       maskUnits="userSpaceOnUse"
       x="0"
       y="0"
       width="1"
       height="1"
       id="mask118438"><g
         id="g118450"><g
           clip-path="url(#clipPath118432)"
           id="g118448"><g
             id="g118446"><g
               id="g118440" /><g
               id="g118444"><g
                 clip-path="url(#clipPath118436)"
                 id="g118442" /></g></g></g></g></mask><linearGradient
       x1="0"
       y1="0"
       x2="1"
       y2="0"
       gradientUnits="userSpaceOnUse"
       gradientTransform="matrix(0,-60.000946,-60.000946,0,249.99951,381.6665)"
       spreadMethod="pad"
       id="linearGradient118458"><stop
         style="stop-opacity:1;stop-color:#ffffff"
         offset="0"
         id="stop118452" /><stop
         style="stop-opacity:1;stop-color:#ffffff"
         offset="0.20856648"
         id="stop118454" /><stop
         style="stop-opacity:1;stop-color:#231f20"
         offset="1"
         id="stop118456" /></linearGradient><mask
       maskUnits="userSpaceOnUse"
       x="0"
       y="0"
       width="1"
       height="1"
       id="mask118460"><g
         id="g118486"><g
           clip-path="url(#clipPath118420)"
           id="g118484"><g
             id="g118482"><g
               id="g118462" /><g
               id="g118480"><g
                 clip-path="url(#clipPath118424)"
                 id="g118478"><g
                   id="g118476"><g
                     clip-path="url(#clipPath118428)"
                     id="g118474"><g
                       id="g118472"><g
                         id="g118464" /><g
                         mask="url(#mask118438)"
                         id="g118470"><g
                           id="g118468"><path
                             d="m 336.333,352 c 0,-21.539 -38.652,-39 -86.333,-39 -47.681,0 -86.333,17.461 -86.333,39 0,21.539 38.652,39 86.333,39 47.681,0 86.333,-17.461 86.333,-39"
                             style="fill:url(#linearGradient118458);stroke:none"
                             id="path118466"
                             inkscape:connector-curvature="0" /></g></g></g></g></g></g></g></g></g></g></mask><clipPath
       clipPathUnits="userSpaceOnUse"
       id="clipPath118494"><path
         d="M 163.667,391 H 336.333 V 313 H 163.667 Z"
         id="path118492"
         inkscape:connector-curvature="0" /></clipPath><linearGradient
       x1="0"
       y1="0"
       x2="1"
       y2="0"
       gradientUnits="userSpaceOnUse"
       gradientTransform="matrix(0,-60.000946,-60.000946,0,249.99951,381.6665)"
       spreadMethod="pad"
       id="linearGradient118506"><stop
         style="stop-opacity:1;stop-color:#f7931e"
         offset="0"
         id="stop118500" /><stop
         style="stop-opacity:1;stop-color:#f7931e"
         offset="0.20856648"
         id="stop118502" /><stop
         style="stop-opacity:1;stop-color:#ffffff"
         offset="1"
         id="stop118504" /></linearGradient><clipPath
       clipPathUnits="userSpaceOnUse"
       id="clipPath118528"><path
         d="M 101,328.509 H 399 V 184.514 H 101 Z"
         id="path118526"
         inkscape:connector-curvature="0" /></clipPath><linearGradient
       x1="0"
       y1="0"
       x2="1"
       y2="0"
       gradientUnits="userSpaceOnUse"
       gradientTransform="matrix(-12.19191,165.20363,165.20363,12.19191,159.45654,153.00391)"
       spreadMethod="pad"
       id="linearGradient118620"><stop
         style="stop-opacity:1;stop-color:#595959"
         offset="0"
         id="stop118616" /><stop
         style="stop-opacity:1;stop-color:#000000"
         offset="1"
         id="stop118618" /></linearGradient><clipPath
       clipPathUnits="userSpaceOnUse"
       id="clipPath118630"><path
         d="M 63.9043,339.083 H 232.165 V 202.678 H 63.9043 Z"
         id="path118628"
         inkscape:connector-curvature="0" /></clipPath><clipPath
       clipPathUnits="userSpaceOnUse"
       id="clipPath118634"><path
         d="M 63.9043,339.083 H 232.165 V 202.678 H 63.9043 Z"
         id="path118632"
         inkscape:connector-curvature="0" /></clipPath><linearGradient
       x1="0"
       y1="0"
       x2="1"
       y2="0"
       gradientUnits="userSpaceOnUse"
       gradientTransform="matrix(47.693756,-98.768158,-98.768158,-47.693741,108.09131,353.59717)"
       spreadMethod="pad"
       id="linearGradient118644"><stop
         style="stop-opacity:1;stop-color:#ffffff"
         offset="0"
         id="stop118640" /><stop
         style="stop-opacity:1;stop-color:#000000"
         offset="1"
         id="stop118642" /></linearGradient><mask
       maskUnits="userSpaceOnUse"
       x="0"
       y="0"
       width="1"
       height="1"
       id="mask118646"><g
         id="g118668"><g
           clip-path="url(#clipPath118630)"
           id="g118666"><g
             id="g118664"><g
               id="g118648" /><g
               id="g118662"><g
                 clip-path="url(#clipPath118634)"
                 id="g118660"><g
                   id="g118658"><g
                     id="g118656"><g
                       id="g118654"><g
                         id="g118652"><path
                           d="M 232.165,214.412 73.101,202.678 63.904,327.349 222.968,339.083 Z"
                           style="fill:url(#linearGradient118644);stroke:none"
                           id="path118650"
                           inkscape:connector-curvature="0" /></g></g></g></g></g></g></g></g></g></mask><clipPath
       clipPathUnits="userSpaceOnUse"
       id="clipPath118676"><path
         d="M 86.064,308.654 H 215.791 V 252.273 H 86.064 Z"
         id="path118674"
         inkscape:connector-curvature="0" /></clipPath><linearGradient
       x1="0"
       y1="0"
       x2="1"
       y2="0"
       gradientUnits="userSpaceOnUse"
       gradientTransform="matrix(-12.192017,165.20522,-165.20522,-12.192017,348.92871,166.98047)"
       spreadMethod="pad"
       id="linearGradient118734"><stop
         style="stop-opacity:1;stop-color:#595959"
         offset="0"
         id="stop118730" /><stop
         style="stop-opacity:1;stop-color:#000000"
         offset="1"
         id="stop118732" /></linearGradient><clipPath
       clipPathUnits="userSpaceOnUse"
       id="clipPath118744"><path
         d="m 258.793,353.46 h 168.26 V 217.055 h -168.26 z"
         id="path118742"
         inkscape:connector-curvature="0" /></clipPath><clipPath
       clipPathUnits="userSpaceOnUse"
       id="clipPath118748"><path
         d="m 258.793,353.46 h 168.26 V 217.055 h -168.26 z"
         id="path118746"
         inkscape:connector-curvature="0" /></clipPath><linearGradient
       x1="0"
       y1="0"
       x2="1"
       y2="0"
       gradientUnits="userSpaceOnUse"
       gradientTransform="matrix(-32.67688,-104.69603,104.69603,-32.67688,370.28906,372.93701)"
       spreadMethod="pad"
       id="linearGradient118758"><stop
         style="stop-opacity:1;stop-color:#ffffff"
         offset="0"
         id="stop118754" /><stop
         style="stop-opacity:1;stop-color:#000000"
         offset="1"
         id="stop118756" /></linearGradient><mask
       maskUnits="userSpaceOnUse"
       x="0"
       y="0"
       width="1"
       height="1"
       id="mask118760"><g
         id="g118782"><g
           clip-path="url(#clipPath118744)"
           id="g118780"><g
             id="g118778"><g
               id="g118762" /><g
               id="g118776"><g
                 clip-path="url(#clipPath118748)"
                 id="g118774"><g
                   id="g118772"><g
                     id="g118770"><g
                       id="g118768"><g
                         id="g118766"><path
                           d="M 267.989,217.055 427.053,228.789 417.856,353.46 258.793,341.726 Z"
                           style="fill:url(#linearGradient118758);stroke:none"
                           id="path118764"
                           inkscape:connector-curvature="0" /></g></g></g></g></g></g></g></g></g></mask><clipPath
       clipPathUnits="userSpaceOnUse"
       id="clipPath118790"><path
         d="M 275.017,321.958 H 406.144 V 273.822 H 275.017 Z"
         id="path118788"
         inkscape:connector-curvature="0" /></clipPath></defs><sodipodi:namedview
     pagecolor="#ffffff"
     bordercolor="#666666"
     borderopacity="1"
     objecttolerance="10"
     gridtolerance="10"
     guidetolerance="10"
     inkscape:pageopacity="0"
     inkscape:pageshadow="2"
     inkscape:window-width="797"
     inkscape:window-height="480"
     id="namedview118122"
     showgrid="false"
     inkscape:zoom="0.35399999"
     inkscape:cx="333.33334"
     inkscape:cy="333.33334"
     inkscape:window-x="0"
     inkscape:window-y="0"
     inkscape:window-maximized="0"
     inkscape:current-layer="g118128" /><g
     id="g118128"
     inkscape:groupmode="layer"
     inkscape:label="sun-sunglasses-publicdomainvectors.org"
     transform="matrix(1.3333333,0,0,-1.3333333,0,666.66667)"><g
       id="g118130"><g
         id="g118132"
         clip-path="url(#clipPath118136)"><g
           id="g118138"><g
             id="g118140"><g
               id="g118146"><g
                 id="g118148"><path
                   d="m 399,254 c 0,-14.22 -1.99,-27.98 -5.71,-41.01 C 375.47,150.64 318.07,105 250,105 191.08,105 140.15,139.2 115.97,188.83 106.38,208.52 101,230.63 101,254 c 0,19.52 3.76,38.17 10.58,55.25 C 133.53,364.19 187.23,403 250,403 305.2,403 353.39,372.98 379.14,328.38 391.77,306.49 399,281.09 399,254"
                   style="fill:url(#radialGradient118156);stroke:none"
                   id="path118158"
                   inkscape:connector-curvature="0" /></g></g></g></g><g
           id="g118160"><g
             id="g118162" /><g
             id="g118408"><g
               clip-path="url(#clipPath118166)"
               id="g118406"><g
                 id="g118244"><g
                   id="g118236" /><g
                   id="g118242"><g
                     clip-path="url(#clipPath118170)"
                     id="g118240"
                     style="opacity:0"><path
                       d="M 349.18,198.33 C 325.49,169.96 289.85,141.9 250,141.9 c -39.85,0 -75.49,28.06 -99.18,56.43 3.09,-1.99 6.25,-6.88 9.47,-8.68 26.29,-14.69 56.96,-30.13 89.71,-30.13 32.75,0 63.42,15.44 89.71,30.13 3.22,1.8 6.38,6.69 9.47,8.68"
                       style="fill:#ffffff;fill-opacity:1;fill-rule:nonzero;stroke:none"
                       id="path118238"
                       inkscape:connector-curvature="0" /></g></g></g><g
                 id="g118254"><g
                   id="g118246" /><g
                   id="g118252"><g
                     clip-path="url(#clipPath118174)"
                     id="g118250"
                     style="opacity:0.0625"><path
                       d="M 349.18,198.33 C 325.49,169.96 289.85,142.525 250,142.525 c -39.85,0 -75.49,27.435 -99.18,55.805 3.09,-1.99 6.25,-6.692 9.47,-8.492 26.29,-14.691 56.96,-29.693 89.71,-29.693 32.75,0 63.42,15.002 89.71,29.693 3.22,1.8 6.38,6.502 9.47,8.492"
                       style="fill:#f9f9f9;fill-opacity:1;fill-rule:nonzero;stroke:none"
                       id="path118248"
                       inkscape:connector-curvature="0" /></g></g></g><g
                 id="g118264"><g
                   id="g118256" /><g
                   id="g118262"><g
                     clip-path="url(#clipPath118178)"
                     id="g118260"
                     style="opacity:0.125"><path
                       d="M 349.18,198.33 C 325.49,169.96 289.85,143.15 250,143.15 c -39.85,0 -75.49,26.81 -99.18,55.18 3.09,-1.99 6.25,-6.505 9.47,-8.305 26.29,-14.69 56.96,-29.255 89.71,-29.255 32.75,0 63.42,14.565 89.71,29.255 3.22,1.8 6.38,6.315 9.47,8.305"
                       style="fill:#f2f2f2;fill-opacity:1;fill-rule:nonzero;stroke:none"
                       id="path118258"
                       inkscape:connector-curvature="0" /></g></g></g><g
                 id="g118274"><g
                   id="g118266" /><g
                   id="g118272"><g
                     clip-path="url(#clipPath118182)"
                     id="g118270"
                     style="opacity:0.1875"><path
                       d="M 349.18,198.33 C 325.49,169.96 289.85,143.775 250,143.775 c -39.85,0 -75.49,26.185 -99.18,54.555 3.09,-1.99 6.25,-6.317 9.47,-8.117 26.29,-14.691 56.96,-28.818 89.71,-28.818 32.75,0 63.42,14.127 89.71,28.818 3.22,1.8 6.38,6.127 9.47,8.117"
                       style="fill:#ececec;fill-opacity:1;fill-rule:nonzero;stroke:none"
                       id="path118268"
                       inkscape:connector-curvature="0" /></g></g></g><g
                 id="g118284"><g
                   id="g118276" /><g
                   id="g118282"><g
                     clip-path="url(#clipPath118186)"
                     id="g118280"
                     style="opacity:0.25"><path
                       d="M 349.18,198.33 C 325.49,169.96 289.85,144.4 250,144.4 c -39.85,0 -75.49,25.56 -99.18,53.93 3.09,-1.99 6.25,-6.13 9.47,-7.93 26.29,-14.69 56.96,-28.38 89.71,-28.38 32.75,0 63.42,13.69 89.71,28.38 3.22,1.8 6.38,5.94 9.47,7.93"
                       style="fill:#e6e6e6;fill-opacity:1;fill-rule:nonzero;stroke:none"
                       id="path118278"
                       inkscape:connector-curvature="0" /></g></g></g><g
                 id="g118294"><g
                   id="g118286" /><g
                   id="g118292"><g
                     clip-path="url(#clipPath118190)"
                     id="g118290"
                     style="opacity:0.3125"><path
                       d="M 349.18,198.33 C 325.49,169.96 289.85,145.025 250,145.025 c -39.85,0 -75.49,24.935 -99.18,53.305 3.09,-1.99 6.25,-5.942 9.47,-7.742 26.29,-14.691 56.96,-27.943 89.71,-27.943 32.75,0 63.42,13.252 89.71,27.943 3.22,1.8 6.38,5.752 9.47,7.742"
                       style="fill:#dfdfdf;fill-opacity:1;fill-rule:nonzero;stroke:none"
                       id="path118288"
                       inkscape:connector-curvature="0" /></g></g></g><g
                 id="g118304"><g
                   id="g118296" /><g
                   id="g118302"><g
                     clip-path="url(#clipPath118194)"
                     id="g118300"
                     style="opacity:0.375"><path
                       d="M 349.18,198.33 C 325.49,169.96 289.85,145.65 250,145.65 c -39.85,0 -75.49,24.31 -99.18,52.68 3.09,-1.99 6.25,-5.755 9.47,-7.555 26.29,-14.69 56.96,-27.505 89.71,-27.505 32.75,0 63.42,12.815 89.71,27.505 3.22,1.8 6.38,5.565 9.47,7.555"
                       style="fill:#d9d9d9;fill-opacity:1;fill-rule:nonzero;stroke:none"
                       id="path118298"
                       inkscape:connector-curvature="0" /></g></g></g><g
                 id="g118314"><g
                   id="g118306" /><g
                   id="g118312"><g
                     clip-path="url(#clipPath118198)"
                     id="g118310"
                     style="opacity:0.4375"><path
                       d="M 349.18,198.33 C 325.49,169.96 289.85,146.275 250,146.275 c -39.85,0 -75.49,23.685 -99.18,52.055 3.09,-1.99 6.25,-5.567 9.47,-7.367 26.29,-14.691 56.96,-27.068 89.71,-27.068 32.75,0 63.42,12.377 89.71,27.068 3.22,1.8 6.38,5.377 9.47,7.367"
                       style="fill:#d2d2d2;fill-opacity:1;fill-rule:nonzero;stroke:none"
                       id="path118308"
                       inkscape:connector-curvature="0" /></g></g></g><g
                 id="g118324"><g
                   id="g118316" /><g
                   id="g118322"><g
                     clip-path="url(#clipPath118202)"
                     id="g118320"
                     style="opacity:0.5"><path
                       d="M 349.18,198.33 C 325.49,169.96 289.85,146.9 250,146.9 c -39.85,0 -75.49,23.06 -99.18,51.43 3.09,-1.99 6.25,-5.38 9.47,-7.18 26.29,-14.69 56.96,-26.63 89.71,-26.63 32.75,0 63.42,11.94 89.71,26.63 3.22,1.8 6.38,5.19 9.47,7.18"
                       style="fill:#cccccc;fill-opacity:1;fill-rule:nonzero;stroke:none"
                       id="path118318"
                       inkscape:connector-curvature="0" /></g></g></g><g
                 id="g118334"><g
                   id="g118326" /><g
                   id="g118332"><g
                     clip-path="url(#clipPath118206)"
                     id="g118330"
                     style="opacity:0.5625"><path
                       d="M 349.18,198.33 C 325.49,169.96 289.85,147.525 250,147.525 c -39.85,0 -75.49,22.435 -99.18,50.805 3.09,-1.99 6.25,-5.192 9.47,-6.992 26.29,-14.691 56.96,-26.193 89.71,-26.193 32.75,0 63.42,11.502 89.71,26.193 3.22,1.8 6.38,5.002 9.47,6.992"
                       style="fill:#c6c6c6;fill-opacity:1;fill-rule:nonzero;stroke:none"
                       id="path118328"
                       inkscape:connector-curvature="0" /></g></g></g><g
                 id="g118344"><g
                   id="g118336" /><g
                   id="g118342"><g
                     clip-path="url(#clipPath118210)"
                     id="g118340"
                     style="opacity:0.625"><path
                       d="M 349.18,198.33 C 325.49,169.96 289.85,148.15 250,148.15 c -39.85,0 -75.49,21.81 -99.18,50.18 3.09,-1.99 6.25,-5.005 9.47,-6.805 26.29,-14.69 56.96,-25.755 89.71,-25.755 32.75,0 63.42,11.065 89.71,25.755 3.22,1.8 6.38,4.815 9.47,6.805"
                       style="fill:#bfbfbf;fill-opacity:1;fill-rule:nonzero;stroke:none"
                       id="path118338"
                       inkscape:connector-curvature="0" /></g></g></g><g
                 id="g118354"><g
                   id="g118346" /><g
                   id="g118352"><g
                     clip-path="url(#clipPath118214)"
                     id="g118350"
                     style="opacity:0.6875"><path
                       d="M 349.18,198.33 C 325.49,169.96 289.85,148.775 250,148.775 c -39.85,0 -75.49,21.185 -99.18,49.555 3.09,-1.99 6.25,-4.817 9.47,-6.617 26.29,-14.691 56.96,-25.318 89.71,-25.318 32.75,0 63.42,10.627 89.71,25.318 3.22,1.8 6.38,4.627 9.47,6.617"
                       style="fill:#b9b9b9;fill-opacity:1;fill-rule:nonzero;stroke:none"
                       id="path118348"
                       inkscape:connector-curvature="0" /></g></g></g><g
                 id="g118364"><g
                   id="g118356" /><g
                   id="g118362"><g
                     clip-path="url(#clipPath118218)"
                     id="g118360"
                     style="opacity:0.75"><path
                       d="M 349.18,198.33 C 325.49,169.96 289.85,149.4 250,149.4 c -39.85,0 -75.49,20.56 -99.18,48.93 3.09,-1.99 6.25,-4.63 9.47,-6.43 26.29,-14.69 56.96,-24.88 89.71,-24.88 32.75,0 63.42,10.19 89.71,24.88 3.22,1.8 6.38,4.44 9.47,6.43"
                       style="fill:#b3b3b3;fill-opacity:1;fill-rule:nonzero;stroke:none"
                       id="path118358"
                       inkscape:connector-curvature="0" /></g></g></g><g
                 id="g118374"><g
                   id="g118366" /><g
                   id="g118372"><g
                     clip-path="url(#clipPath118222)"
                     id="g118370"
                     style="opacity:0.8125"><path
                       d="M 349.18,198.33 C 325.49,169.96 289.85,150.025 250,150.025 c -39.85,0 -75.49,19.935 -99.18,48.305 3.09,-1.99 6.25,-4.442 9.47,-6.242 26.29,-14.691 56.96,-24.443 89.71,-24.443 32.75,0 63.42,9.752 89.71,24.443 3.22,1.8 6.38,4.252 9.47,6.242"
                       style="fill:#acacac;fill-opacity:1;fill-rule:nonzero;stroke:none"
                       id="path118368"
                       inkscape:connector-curvature="0" /></g></g></g><g
                 id="g118384"><g
                   id="g118376" /><g
                   id="g118382"><g
                     clip-path="url(#clipPath118226)"
                     id="g118380"
                     style="opacity:0.875"><path
                       d="M 349.18,198.33 C 325.49,169.96 289.85,150.65 250,150.65 c -39.85,0 -75.49,19.31 -99.18,47.68 3.09,-1.99 6.25,-4.255 9.47,-6.055 26.29,-14.69 56.96,-24.005 89.71,-24.005 32.75,0 63.42,9.315 89.71,24.005 3.22,1.8 6.38,4.065 9.47,6.055"
                       style="fill:#a6a6a6;fill-opacity:1;fill-rule:nonzero;stroke:none"
                       id="path118378"
                       inkscape:connector-curvature="0" /></g></g></g><g
                 id="g118394"><g
                   id="g118386" /><g
                   id="g118392"><g
                     clip-path="url(#clipPath118230)"
                     id="g118390"
                     style="opacity:0.9375"><path
                       d="M 349.18,198.33 C 325.49,169.96 289.85,151.275 250,151.275 c -39.85,0 -75.49,18.685 -99.18,47.055 3.09,-1.99 6.25,-4.067 9.47,-5.867 26.29,-14.691 56.96,-23.568 89.71,-23.568 32.75,0 63.42,8.877 89.71,23.568 3.22,1.8 6.38,3.877 9.47,5.867"
                       style="fill:#9f9f9f;fill-opacity:1;fill-rule:nonzero;stroke:none"
                       id="path118388"
                       inkscape:connector-curvature="0" /></g></g></g><g
                 id="g118404"><g
                   id="g118396" /><g
                   id="g118402"><g
                     clip-path="url(#clipPath118234)"
                     id="g118400"><path
                       d="M 349.18,198.33 C 325.49,169.96 289.85,151.9 250,151.9 c -39.85,0 -75.49,18.06 -99.18,46.43 3.09,-1.99 6.25,-3.88 9.47,-5.68 26.29,-14.69 56.96,-23.13 89.71,-23.13 32.75,0 63.42,8.44 89.71,23.13 3.22,1.8 6.38,3.69 9.47,5.68"
                       style="fill:#999999;fill-opacity:1;fill-rule:nonzero;stroke:none"
                       id="path118398"
                       inkscape:connector-curvature="0" /></g></g></g></g></g></g><path
           d="M 349.18,198.33 C 325.49,169.96 289.85,151.9 250,151.9 c -39.85,0 -75.49,18.06 -99.18,46.43 3.09,-1.99 6.25,-3.88 9.47,-5.68 26.29,-14.69 56.96,-23.13 89.71,-23.13 32.75,0 63.42,8.44 89.71,23.13 3.22,1.8 6.38,3.69 9.47,5.68"
           style="fill:#f15a24;fill-opacity:1;fill-rule:nonzero;stroke:none"
           id="path118410"
           inkscape:connector-curvature="0" /><path
           d="M 339.71,192.65 C 315.93,174.77 284.48,163.9 250,163.9 c -34.48,0 -65.93,10.87 -89.71,28.75 26.29,-14.69 56.96,-23.13 89.71,-23.13 32.75,0 63.42,8.44 89.71,23.13"
           style="fill:#ffffff;fill-opacity:1;fill-rule:nonzero;stroke:none"
           id="path118412"
           inkscape:connector-curvature="0" /><g
           id="g118414"><g
             id="g118416" /><g
             id="g118488"
             mask="url(#mask118460)"><g
               id="g118490" /><g
               id="g118520"><g
                 clip-path="url(#clipPath118494)"
                 id="g118518"><g
                   id="g118516"><g
                     id="g118514"><g
                       id="g118512"><g
                         id="g118510"><path
                           d="m 336.333,352 c 0,-21.539 -38.652,-39 -86.333,-39 -47.681,0 -86.333,17.461 -86.333,39 0,21.539 38.652,39 86.333,39 47.681,0 86.333,-17.461 86.333,-39"
                           style="fill:url(#linearGradient118506);stroke:none"
                           id="path118508"
                           inkscape:connector-curvature="0" /></g></g></g></g></g></g></g></g><g
           id="g118522"><g
             id="g118524" /><g
             id="g118534"><g
               clip-path="url(#clipPath118528)"
               id="g118532"><path
                 d="m 399,254 c 0,-14.22 -1.99,-27.98 -5.71,-41.01 -10.56,-6.91 -25.82,-11.95 -48.29,-14.54 -79.18,-9.14 -85.07,81.82 -87.37,90.7 -0.01,0.02 -0.01,0.04 -0.02,0.06 -0.7,2.68 -3.28,4.43 -6.04,4.23 l -15.4,-1.14 c -2.76,-0.2 -5.05,-2.31 -5.35,-5.06 -0.01,-0.02 -0.01,-0.05 -0.01,-0.07 -0.9,-8.5 5.57,-88 -58.07,-100.85 h -0.01 c -0.82,-0.16 -1.64,-0.32 -2.48,-0.46 h -0.01 c -2.11,-0.36 -4.31,-0.65 -6.58,-0.86 -1.93,-0.18 -3.92,-0.3 -5.97,-0.37 -17.66,-0.57 -31.18,0.98 -41.72,4.2 -9.59,19.69 -14.97,41.8 -14.97,65.17 0,19.52 3.76,38.17 10.58,55.25 29.65,4.68 64.55,8 93.15,4.49 7.55,-0.92 15.17,-1.03 22.75,-0.47 l 6.01,0.44 h 0.03 l 23.56,1.75 c 7.59,0.56 15.12,1.78 22.45,3.8 10.57,2.92 22.18,4.99 34.17,6.42 h 0.02 c 21.93,2.63 45.11,3.11 65.42,2.7 C 391.77,306.49 399,281.09 399,254"
                 style="fill:#cccccc;fill-opacity:1;fill-rule:nonzero;stroke:none"
                 id="path118530"
                 inkscape:connector-curvature="0" /></g></g></g><path
           d="m 429.332,332.542 c -24.884,2.335 -99.306,7.655 -149.804,-6.281 -7.331,-2.024 -14.859,-3.244 -22.444,-3.803 l -29.599,-2.184 c -7.585,-0.559 -15.21,-0.457 -22.759,0.469 -51.997,6.375 -124.832,-9.809 -149.103,-15.77 -4.467,-1.097 -7.057,-5.75 -5.647,-10.128 l 4.753,-14.766 c 0.752,-2.335 2.457,-4.281 4.732,-5.196 4.341,-1.746 7.683,-5.312 9.189,-9.737 13.547,-39.789 13.762,-75.959 89.039,-73.518 79.671,2.584 72.146,93.417 73.12,102.545 0.002,0.022 0.004,0.043 0.007,0.064 0.302,2.753 2.594,4.862 5.355,5.066 l 15.398,1.136 c 2.762,0.204 5.338,-1.546 6.041,-4.225 0.006,-0.021 0.011,-0.042 0.017,-0.062 2.302,-8.887 8.188,-99.84 87.376,-90.706 74.818,8.631 69.726,44.44 77.286,85.785 0.845,4.625 3.766,8.526 7.741,11.035 2.043,1.289 3.442,3.392 3.838,5.782 l 2.535,15.304 c 0.752,4.538 -2.492,8.761 -7.071,9.19"
           style="fill:#000000;fill-opacity:1;fill-rule:nonzero;stroke:none"
           id="path118536"
           inkscape:connector-curvature="0" /><path
           d="m 55.733,304.525 c 16.897,4.149 57.652,13.329 98.389,16.283 17.592,1.275 35.039,1.378 50.548,-0.524 7.56,-0.927 15.218,-1.034 22.849,-0.471 l 29.599,2.184 c 7.632,0.563 15.191,1.792 22.532,3.818 15.063,4.157 32.335,6.616 49.923,7.935 40.731,3.058 82.392,-0.042 99.715,-1.667 0.273,-0.026 0.546,-0.066 0.812,-0.129 0.276,-0.066 0.536,-0.145 0.79,-0.23 3.434,-1.095 5.611,-4.96 4.996,-8.674 l -2.464,-14.867 c -0.093,-0.56 -0.254,-1.163 -0.459,-1.683 -0.198,-0.51 -0.451,-0.997 -0.754,-1.448 -0.654,-0.977 -1.512,-1.821 -2.527,-2.466 -3.855,-2.446 -6.703,-6.215 -7.588,-10.675 -1.254,-6.325 -2.17,-12.544 -3.082,-18.563 -1.469,-9.686 -3.048,-18.815 -6.2,-27.044 -7.272,-19.194 -22.856,-33.069 -64.414,-38.996 -17.249,-2.46 -31.557,-0.493 -43.702,5.034 -0.852,0.387 -1.68,0.814 -2.497,1.247 -0.001,0 -0.003,0.001 -0.004,0.002 -16.074,8.479 -26.271,23.078 -32.774,38.271 -6.236,14.65 -8.848,29.327 -10.199,37.718 -0.251,1.557 -0.456,2.883 -0.641,3.974 -0.221,1.309 -0.421,2.308 -0.608,2.946 -0.007,0.021 -0.013,0.042 -0.019,0.063 -0.785,2.708 -3.404,4.182 -6.225,4.329 -0.064,0.003 -2.208,-0.141 -2.273,-0.146 l -11.393,-0.84 c -0.06,-0.005 -2.043,-0.163 -2.101,-0.174 -2.776,-0.532 -5.149,-2.396 -5.532,-5.185 -0.003,-0.022 -0.006,-0.043 -0.009,-0.065 -0.093,-0.662 -0.148,-1.687 -0.174,-3.024 0,-0.01 -0.001,-0.026 -0.001,-0.036 -0.022,-1.11 -0.031,-2.45 -0.051,-4.022 -0.107,-8.504 -0.54,-23.387 -4.555,-38.773 -4.202,-15.977 -12.12,-31.937 -26.789,-42.65 -0.747,-0.55 -1.506,-1.096 -2.296,-1.608 -11.201,-7.252 -25.07,-11.265 -42.498,-11.397 -57.647,-0.438 -68.992,21.382 -78.149,50.489 -2.164,6.88 -4.203,14.122 -6.708,21.493 -1.449,4.261 -4.645,7.656 -8.727,9.469 -2.201,0.977 -3.503,3.131 -4.659,5.289 -0.123,0.23 -3.832,11.124 -4.078,11.223 -0.009,0.003 -0.238,0.688 -0.245,0.709 l -0.833,2.588 c -1.234,3.834 0.56,8.647 4.247,10.004 0.131,0.052 0.261,0.108 0.405,0.162 0.139,0.053 0.283,0.092 0.423,0.127"
           style="fill:#040404;fill-opacity:1;fill-rule:nonzero;stroke:none"
           id="path118538"
           inkscape:connector-curvature="0" /><path
           d="m 55.843,304.076 c 16.813,4.129 57.564,13.314 98.279,16.268 17.69,1.284 35.088,1.37 50.492,-0.518 7.572,-0.929 15.261,-1.039 22.939,-0.473 l 29.599,2.184 c 7.678,0.566 15.268,1.804 22.621,3.833 14.96,4.129 32.182,6.597 49.869,7.922 40.708,3.053 82.366,-0.052 99.603,-1.669 0.258,-0.024 0.525,-0.063 0.782,-0.134 0.268,-0.074 0.507,-0.159 0.744,-0.242 3.206,-1.022 5.17,-5.033 4.596,-8.498 l -2.39,-14.431 c -0.087,-0.523 -0.248,-1.15 -0.44,-1.634 -0.187,-0.497 -0.436,-0.969 -0.736,-1.401 -0.649,-0.936 -1.486,-1.748 -2.468,-2.376 -3.733,-2.385 -6.511,-6.022 -7.434,-10.317 -1.31,-6.093 -2.26,-12.114 -3.154,-17.961 -1.433,-9.389 -2.986,-18.24 -5.949,-26.261 -7.019,-19.005 -21.729,-32.448 -61.002,-39.198 -16.788,-2.886 -31.311,-1.893 -44.467,3.201 -0.885,0.343 -1.74,0.743 -2.586,1.14 -10e-4,0.001 -0.002,0.001 -0.004,0.002 -16.737,7.817 -27.546,22.068 -34.495,37.73 -6.554,14.906 -9.224,30.082 -10.586,38.544 -0.26,1.618 -0.469,2.966 -0.662,4.064 -0.229,1.311 -0.457,2.326 -0.676,2.998 -0.006,0.022 -0.013,0.043 -0.02,0.064 -0.867,2.735 -3.534,4.255 -6.411,4.431 -0.126,0.008 -2.195,-0.117 -2.326,-0.127 l -11.66,-0.86 c -0.121,-0.009 -2.033,-0.173 -2.148,-0.196 -2.83,-0.567 -5.246,-2.478 -5.709,-5.305 -0.003,-0.021 -0.006,-0.043 -0.01,-0.065 -0.122,-0.701 -0.202,-1.747 -0.238,-3.088 -0.001,-0.009 -0.002,-0.032 -0.002,-0.041 -0.03,-1.122 -0.04,-2.484 -0.059,-4.119 -0.106,-8.576 -0.525,-23.962 -4.816,-39.649 -4.574,-16.505 -13.163,-32.194 -28.572,-42.369 -0.783,-0.516 -1.571,-1.042 -2.399,-1.512 -12.266,-6.975 -26.487,-10.019 -43.524,-9.699 -54.461,1.026 -65.35,21.52 -74.223,49.767 -2.081,6.624 -4.047,13.59 -6.452,20.68 -1.39,4.098 -4.443,7.33 -8.265,9.202 -2.127,1.043 -3.407,3.24 -4.585,5.383 -0.251,0.457 -3.971,10.778 -4.464,10.976 -0.018,0.007 -0.246,0.66 -0.259,0.701 l -0.836,2.596 c -1.152,3.578 0.264,8.876 3.705,10.142 0.121,0.052 0.239,0.116 0.381,0.18 0.137,0.063 0.282,0.102 0.417,0.135"
           style="fill:#070707;fill-opacity:1;fill-rule:nonzero;stroke:none"
           id="path118540"
           inkscape:connector-curvature="0" /><path
           d="m 55.953,303.628 c 16.728,4.108 57.476,13.297 98.168,16.253 17.789,1.293 35.139,1.362 50.437,-0.514 7.583,-0.929 15.305,-1.044 23.029,-0.474 l 29.6,2.183 c 7.723,0.57 15.345,1.817 22.709,3.849 14.857,4.1 32.03,6.578 49.815,7.909 40.685,3.048 82.341,-0.063 99.491,-1.671 0.244,-0.023 0.503,-0.06 0.752,-0.139 0.259,-0.082 0.48,-0.174 0.698,-0.255 2.977,-0.949 4.731,-5.103 4.198,-8.322 l -2.319,-13.994 c -0.081,-0.486 -0.242,-1.136 -0.42,-1.585 -0.177,-0.483 -0.422,-0.941 -0.718,-1.355 -0.643,-0.893 -1.458,-1.675 -2.409,-2.285 -3.612,-2.324 -6.318,-5.829 -7.279,-9.958 -1.366,-5.862 -2.351,-11.686 -3.226,-17.36 -1.4,-9.093 -2.91,-17.672 -5.698,-25.477 -6.728,-18.831 -20.616,-31.884 -57.591,-39.402 -16.341,-3.322 -31.042,-3.27 -45.232,1.37 -0.915,0.299 -1.8,0.67 -2.675,1.033 -0.001,0 -0.002,0.001 -0.004,0.001 -17.406,7.151 -28.856,21.042 -36.216,37.189 -6.905,15.147 -9.601,30.836 -10.972,39.37 -0.27,1.68 -0.483,3.049 -0.683,4.153 -0.239,1.315 -0.493,2.346 -0.744,3.051 -0.008,0.022 -0.015,0.043 -0.022,0.065 -0.95,2.763 -3.663,4.328 -6.596,4.533 -0.19,0.014 -2.184,-0.094 -2.381,-0.108 l -11.926,-0.88 c -0.181,-0.014 -2.023,-0.183 -2.195,-0.219 -2.883,-0.602 -5.342,-2.559 -5.885,-5.422 -0.004,-0.023 -0.008,-0.045 -0.013,-0.067 -0.15,-0.741 -0.256,-1.806 -0.301,-3.152 0,-0.009 -0.003,-0.038 -0.003,-0.046 -0.038,-1.134 -0.048,-2.517 -0.068,-4.215 -0.104,-8.648 -0.473,-24.548 -5.075,-40.526 -4.91,-17.046 -14.184,-32.478 -30.356,-42.086 -0.817,-0.485 -1.638,-0.987 -2.502,-1.42 -13.356,-6.677 -27.887,-8.779 -44.549,-7.997 -51.246,2.404 -61.709,21.657 -70.297,49.043 -1.999,6.368 -3.891,13.059 -6.196,19.867 -1.332,3.934 -4.241,7.013 -7.803,8.936 -2.056,1.11 -3.313,3.348 -4.512,5.475 -0.384,0.682 -4.11,10.432 -4.851,10.73 -0.027,0.011 -0.252,0.632 -0.272,0.694 l -0.838,2.603 c -1.07,3.323 -0.033,9.104 3.162,10.28 0.111,0.052 0.217,0.124 0.357,0.198 0.135,0.073 0.282,0.112 0.411,0.144"
           style="fill:#0b0b0b;fill-opacity:1;fill-rule:nonzero;stroke:none"
           id="path118542"
           inkscape:connector-curvature="0" /><path
           d="m 56.063,303.179 c 16.644,4.088 57.389,13.281 98.058,16.239 17.886,1.302 35.189,1.353 50.38,-0.509 7.595,-0.931 15.35,-1.051 23.12,-0.477 l 29.6,2.183 c 7.769,0.573 15.423,1.829 22.799,3.864 14.753,4.072 31.876,6.56 49.759,7.897 40.663,3.042 82.317,-0.072 99.38,-1.673 0.23,-0.021 0.482,-0.057 0.723,-0.144 0.25,-0.089 0.451,-0.188 0.652,-0.267 2.748,-0.876 4.289,-5.176 3.797,-8.146 l -2.246,-13.558 c -0.074,-0.448 -0.235,-1.121 -0.399,-1.536 -0.168,-0.47 -0.408,-0.913 -0.702,-1.307 -0.635,-0.853 -1.43,-1.603 -2.348,-2.197 -3.491,-2.261 -6.126,-5.634 -7.125,-9.599 -1.422,-5.63 -2.443,-11.257 -3.298,-16.758 -1.366,-8.796 -2.83,-17.104 -5.447,-24.693 -6.436,-18.661 -19.514,-31.382 -54.18,-39.605 -15.906,-3.773 -30.755,-4.624 -45.997,-0.462 -0.944,0.257 -1.86,0.598 -2.764,0.924 -10e-4,0.001 -0.002,0.001 -0.004,0.002 -18.078,6.481 -30.138,20.028 -37.938,36.647 -7.227,15.4 -9.977,31.592 -11.358,40.197 -0.279,1.742 -0.495,3.132 -0.704,4.243 -0.248,1.317 -0.527,2.364 -0.811,3.103 -0.009,0.021 -0.016,0.043 -0.025,0.065 -1.031,2.793 -3.791,4.402 -6.78,4.637 -0.253,0.02 -2.173,-0.071 -2.435,-0.09 l -12.193,-0.9 c -0.242,-0.018 -2.013,-0.192 -2.242,-0.241 -2.938,-0.637 -5.438,-2.641 -6.062,-5.542 -0.004,-0.022 -0.009,-0.045 -0.014,-0.067 -0.18,-0.78 -0.311,-1.865 -0.365,-3.217 0,-0.007 -0.004,-0.043 -0.004,-0.05 -0.045,-1.146 -0.056,-2.551 -0.076,-4.312 -0.104,-8.72 -0.451,-25.125 -5.335,-41.401 -5.276,-17.578 -15.202,-32.767 -32.14,-41.804 -0.851,-0.455 -1.706,-0.932 -2.605,-1.327 -14.466,-6.36 -29.27,-7.55 -45.574,-6.297 -48.002,3.688 -58.068,21.795 -66.372,48.319 -1.916,6.113 -3.735,12.528 -5.94,19.055 -1.273,3.771 -4.038,6.705 -7.34,8.669 -1.987,1.182 -3.218,3.456 -4.439,5.569 -0.522,0.903 -4.25,10.086 -5.236,10.483 -0.037,0.014 -0.26,0.604 -0.287,0.687 l -0.84,2.611 c -0.988,3.067 -0.33,9.332 2.62,10.417 0.101,0.053 0.194,0.132 0.332,0.216 0.134,0.082 0.281,0.122 0.405,0.152"
           style="fill:#0e0e0e;fill-opacity:1;fill-rule:nonzero;stroke:none"
           id="path118544"
           inkscape:connector-curvature="0" /><path
           d="m 56.174,302.731 c 16.558,4.066 57.3,13.264 97.947,16.224 17.984,1.31 35.238,1.345 50.324,-0.505 7.606,-0.932 15.393,-1.055 23.21,-0.479 l 29.599,2.184 c 7.816,0.576 15.502,1.841 22.889,3.879 14.651,4.044 31.722,6.542 49.705,7.884 40.641,3.037 82.292,-0.083 99.268,-1.675 0.216,-0.02 0.46,-0.054 0.693,-0.148 0.241,-0.098 0.423,-0.203 0.607,-0.281 2.519,-0.803 3.849,-5.247 3.397,-7.97 l -2.173,-13.121 c -0.069,-0.411 -0.23,-1.107 -0.38,-1.488 -0.158,-0.456 -0.392,-0.884 -0.684,-1.26 -0.63,-0.81 -1.403,-1.529 -2.289,-2.106 -3.371,-2.2 -5.933,-5.441 -6.971,-9.241 -1.478,-5.398 -2.533,-10.827 -3.369,-16.156 -1.332,-8.5 -2.75,-16.537 -5.197,-23.91 -6.139,-18.491 -18.419,-30.947 -50.769,-39.807 -15.483,-4.241 -30.455,-5.953 -46.762,-2.294 -0.973,0.218 -1.918,0.525 -2.852,0.817 -0.001,0 -0.002,0.001 -0.004,0.001 -18.754,5.805 -31.418,19.016 -39.659,36.107 -7.548,15.652 -10.352,32.345 -11.743,41.022 -0.289,1.804 -0.509,3.215 -0.727,4.333 -0.255,1.32 -0.56,2.382 -0.879,3.155 -0.008,0.021 -0.017,0.044 -0.026,0.066 -1.113,2.821 -3.918,4.475 -6.966,4.739 -0.315,0.028 -2.16,-0.047 -2.488,-0.072 l -12.461,-0.919 c -0.302,-0.022 -2.002,-0.199 -2.288,-0.263 -2.992,-0.673 -5.534,-2.723 -6.238,-5.661 -0.006,-0.023 -0.011,-0.046 -0.016,-0.069 -0.21,-0.818 -0.366,-1.924 -0.43,-3.28 0,-0.007 -0.004,-0.048 -0.004,-0.055 -0.053,-1.158 -0.063,-2.585 -0.084,-4.409 -0.103,-8.791 -0.431,-25.702 -5.596,-42.277 -5.644,-18.11 -16.216,-33.057 -33.923,-41.522 -0.885,-0.423 -1.775,-0.872 -2.708,-1.233 -15.593,-6.019 -30.636,-6.335 -46.599,-4.596 -44.734,4.869 -54.426,21.931 -62.447,47.595 -1.833,5.857 -3.579,11.997 -5.684,18.243 -1.215,3.607 -3.833,6.406 -6.878,8.401 -1.918,1.258 -3.122,3.562 -4.366,5.663 -0.664,1.121 -4.388,9.74 -5.622,10.236 -0.045,0.018 -0.267,0.577 -0.3,0.68 l -0.843,2.618 c -0.905,2.811 -0.626,9.56 2.078,10.555 0.091,0.053 0.172,0.14 0.308,0.234 0.132,0.092 0.281,0.132 0.4,0.161"
           style="fill:#121212;fill-opacity:1;fill-rule:nonzero;stroke:none"
           id="path118546"
           inkscape:connector-curvature="0" /><path
           d="m 56.284,302.283 c 16.473,4.045 57.212,13.247 97.836,16.209 18.083,1.319 35.289,1.337 50.269,-0.5 7.618,-0.934 15.437,-1.061 23.299,-0.481 l 29.6,2.183 c 7.863,0.58 15.579,1.853 22.978,3.895 14.547,4.015 31.57,6.523 49.65,7.871 40.62,3.032 82.268,-0.092 99.157,-1.676 0.201,-0.019 0.439,-0.052 0.663,-0.154 0.232,-0.106 0.395,-0.217 0.562,-0.294 2.289,-0.73 3.407,-5.318 2.997,-7.794 l -2.102,-12.684 c -0.061,-0.374 -0.221,-1.093 -0.359,-1.439 -0.148,-0.442 -0.377,-0.856 -0.666,-1.213 -0.623,-0.769 -1.377,-1.456 -2.23,-2.017 -3.25,-2.137 -5.741,-5.247 -6.816,-8.882 -1.534,-5.166 -2.624,-10.397 -3.441,-15.555 -1.298,-8.202 -2.667,-15.971 -4.947,-23.126 -5.838,-18.323 -17.328,-30.586 -47.356,-40.01 -15.072,-4.729 -30.149,-7.257 -47.528,-4.126 -1.001,0.181 -1.978,0.453 -2.941,0.71 -10e-4,0.001 -0.002,0.001 -0.003,0.002 -19.433,5.123 -32.696,18.003 -41.382,35.565 -7.866,15.906 -10.728,33.1 -12.128,41.847 -0.299,1.867 -0.523,3.299 -0.749,4.424 -0.265,1.322 -0.593,2.4 -0.946,3.206 -0.01,0.023 -0.018,0.045 -0.028,0.068 -1.195,2.849 -4.045,4.548 -7.151,4.842 -0.378,0.036 -2.149,-0.025 -2.543,-0.054 l -12.727,-0.938 c -0.362,-0.027 -1.993,-0.207 -2.335,-0.287 -3.047,-0.708 -5.63,-2.805 -6.415,-5.779 -0.006,-0.024 -0.012,-0.047 -0.018,-0.07 -0.241,-0.857 -0.42,-1.983 -0.493,-3.344 0,-0.007 -0.005,-0.054 -0.005,-0.06 -0.061,-1.17 -0.071,-2.619 -0.092,-4.506 -0.102,-8.863 -0.413,-26.278 -5.857,-43.152 -6.014,-18.642 -17.227,-33.353 -35.706,-41.24 -0.919,-0.393 -1.846,-0.813 -2.811,-1.14 -16.73,-5.654 -31.984,-5.137 -47.624,-2.896 -41.444,5.936 -50.786,22.069 -58.522,46.873 -1.75,5.6 -3.423,11.463 -5.427,17.429 -1.157,3.444 -3.626,6.118 -6.416,8.135 -1.851,1.337 -3.026,3.668 -4.293,5.755 -0.812,1.338 -4.527,9.394 -6.008,9.99 -0.054,0.022 -0.274,0.549 -0.314,0.673 l -0.846,2.625 c -0.822,2.556 -0.922,9.789 1.536,10.693 0.082,0.054 0.15,0.147 0.284,0.252 0.13,0.102 0.28,0.141 0.394,0.17"
           style="fill:#151515;fill-opacity:1;fill-rule:nonzero;stroke:none"
           id="path118548"
           inkscape:connector-curvature="0" /><path
           d="m 56.394,301.834 c 16.389,4.024 57.124,13.231 97.726,16.195 18.18,1.327 35.338,1.328 50.213,-0.496 7.629,-0.935 15.48,-1.067 23.39,-0.483 l 29.599,2.183 c 7.909,0.584 15.657,1.866 23.066,3.911 14.446,3.986 31.418,6.504 49.596,7.858 40.598,3.027 82.244,-0.103 99.045,-1.678 0.188,-0.018 0.419,-0.048 0.635,-0.159 0.223,-0.114 0.366,-0.232 0.515,-0.306 2.06,-0.657 2.967,-5.39 2.598,-7.618 l -2.029,-12.248 c -0.056,-0.336 -0.216,-1.079 -0.339,-1.39 -0.139,-0.429 -0.363,-0.829 -0.649,-1.166 -0.617,-0.728 -1.35,-1.383 -2.169,-1.927 -3.13,-2.075 -5.55,-5.053 -6.663,-8.523 -1.59,-4.935 -2.715,-9.969 -3.513,-14.954 -1.265,-7.906 -2.583,-15.406 -4.696,-22.342 -5.532,-18.158 -16.236,-30.306 -43.946,-40.212 -14.667,-5.245 -29.838,-8.538 -48.293,-5.958 -1.028,0.143 -2.038,0.379 -3.029,0.602 -0.001,0 -0.002,0.001 -0.003,0.001 -20.113,4.438 -33.971,16.992 -43.102,35.023 -8.185,16.162 -11.106,33.855 -12.516,42.674 -0.308,1.929 -0.535,3.382 -0.769,4.513 -0.274,1.326 -0.627,2.42 -1.014,3.259 -0.01,0.023 -0.02,0.045 -0.029,0.068 -1.279,2.878 -4.173,4.622 -7.336,4.945 -0.443,0.046 -2.139,-10e-4 -2.599,-0.035 l -12.994,-0.959 c -0.422,-0.031 -1.983,-0.212 -2.381,-0.308 -3.103,-0.743 -5.727,-2.887 -6.591,-5.899 -0.007,-0.023 -0.013,-0.047 -0.02,-0.07 -0.273,-0.896 -0.475,-2.042 -0.557,-3.408 0,-0.006 -0.005,-0.06 -0.005,-0.066 -0.069,-1.182 -0.08,-2.652 -0.102,-4.601 -0.1,-8.935 -0.396,-26.854 -6.116,-44.029 -6.386,-19.171 -18.237,-33.651 -37.49,-40.959 -0.952,-0.361 -1.916,-0.751 -2.914,-1.044 -17.875,-5.267 -33.318,-3.962 -48.65,-1.197 -38.139,6.878 -47.143,22.206 -54.596,46.15 -1.667,5.344 -3.266,10.932 -5.171,16.616 -1.099,3.28 -3.415,5.841 -5.954,7.869 -1.782,1.422 -2.929,3.772 -4.219,5.848 -0.964,1.55 -4.667,9.048 -6.394,9.743 -0.063,0.025 -0.282,0.521 -0.328,0.666 l -0.848,2.633 c -0.741,2.3 -1.218,10.016 0.994,10.83 0.071,0.053 0.127,0.156 0.259,0.27 0.128,0.112 0.28,0.151 0.388,0.178"
           style="fill:#181818;fill-opacity:1;fill-rule:nonzero;stroke:none"
           id="path118550"
           inkscape:connector-curvature="0" /><path
           d="m 56.504,301.386 c 16.304,4.003 57.036,13.214 97.615,16.179 18.279,1.337 35.389,1.321 50.157,-0.49 7.641,-0.937 15.525,-1.073 23.481,-0.486 l 29.599,2.184 c 7.956,0.587 15.735,1.878 23.155,3.926 14.343,3.958 31.265,6.485 49.542,7.845 40.576,3.022 82.218,-0.112 98.933,-1.68 0.174,-0.016 0.398,-0.045 0.605,-0.164 0.214,-0.121 0.339,-0.246 0.47,-0.319 1.832,-0.584 2.526,-5.461 2.198,-7.441 l -1.957,-11.812 c -0.049,-0.298 -0.209,-1.065 -0.319,-1.342 -0.129,-0.414 -0.347,-0.8 -0.631,-1.118 -0.611,-0.686 -1.323,-1.311 -2.11,-1.837 -3.009,-2.014 -5.356,-4.86 -6.509,-8.165 -1.645,-4.704 -2.805,-9.54 -3.585,-14.352 -1.229,-7.609 -2.495,-14.842 -4.445,-21.558 -5.223,-17.994 -15.133,-30.11 -40.534,-40.416 -14.265,-5.788 -29.526,-9.793 -49.058,-7.79 -1.056,0.108 -2.097,0.308 -3.117,0.495 -0.002,0.001 -0.003,0.001 -0.004,0.001 -20.795,3.746 -35.246,15.981 -44.824,34.482 -8.5,16.418 -11.481,34.609 -12.901,43.5 -0.318,1.991 -0.548,3.465 -0.791,4.603 -0.283,1.328 -0.66,2.439 -1.081,3.311 -0.011,0.023 -0.021,0.046 -0.032,0.069 -1.36,2.906 -4.298,4.695 -7.521,5.048 -0.504,0.055 -2.127,0.022 -2.652,-0.017 l -13.261,-0.979 c -0.483,-0.035 -1.974,-0.218 -2.428,-0.33 -3.159,-0.779 -5.823,-2.969 -6.768,-6.018 -0.007,-0.024 -0.014,-0.048 -0.022,-0.071 -0.304,-0.935 -0.529,-2.102 -0.62,-3.473 0,-0.004 -0.006,-0.065 -0.006,-0.07 -0.077,-1.194 -0.088,-2.685 -0.11,-4.698 -0.1,-9.007 -0.382,-27.429 -6.377,-44.904 -6.759,-19.702 -19.245,-33.954 -39.273,-40.677 -0.986,-0.331 -1.987,-0.689 -3.017,-0.952 -19.025,-4.854 -34.639,-2.814 -49.675,0.504 -34.829,7.688 -43.502,22.345 -50.672,45.427 -1.583,5.088 -3.109,10.4 -4.913,15.803 -1.041,3.117 -3.199,5.574 -5.492,7.602 -1.712,1.514 -2.832,3.877 -4.146,5.941 -1.121,1.76 -4.806,8.703 -6.78,9.497 -0.072,0.029 -0.289,0.493 -0.343,0.659 l -0.849,2.64 c -0.659,2.044 -1.516,10.244 0.451,10.968 0.061,0.054 0.105,0.163 0.235,0.288 0.127,0.121 0.279,0.161 0.382,0.187"
           style="fill:#1c1c1c;fill-opacity:1;fill-rule:nonzero;stroke:none"
           id="path118552"
           inkscape:connector-curvature="0" /><path
           d="m 56.615,300.937 c 16.218,3.982 56.947,13.198 97.504,16.166 18.377,1.345 35.439,1.311 50.101,-0.487 7.653,-0.938 15.569,-1.077 23.571,-0.487 l 29.6,2.184 c 8.002,0.59 15.811,1.89 23.243,3.94 14.24,3.931 31.112,6.467 49.488,7.833 40.553,3.017 82.193,-0.123 98.821,-1.682 0.161,-0.015 0.376,-0.042 0.576,-0.168 0.205,-0.13 0.31,-0.261 0.423,-0.332 1.603,-0.511 2.085,-5.533 1.798,-7.266 l -1.884,-11.375 c -0.043,-0.261 -0.203,-1.051 -0.298,-1.293 -0.12,-0.401 -0.333,-0.772 -0.615,-1.071 -0.604,-0.645 -1.295,-1.238 -2.049,-1.748 -2.888,-1.952 -5.165,-4.665 -6.355,-7.806 -1.702,-4.472 -2.896,-9.11 -3.656,-13.75 -1.196,-7.313 -2.407,-14.279 -4.195,-20.775 -4.908,-17.832 -14.014,-30.002 -37.124,-40.619 -13.86,-6.367 -29.215,-11.027 -49.822,-9.621 -1.084,0.073 -2.157,0.235 -3.206,0.388 -10e-4,0 -0.003,0.001 -0.004,0.001 -21.475,3.05 -36.518,14.971 -46.546,33.94 -8.813,16.674 -11.857,35.364 -13.287,44.326 -0.326,2.053 -0.56,3.548 -0.811,4.693 -0.292,1.331 -0.693,2.459 -1.149,3.363 -0.011,0.022 -0.023,0.046 -0.034,0.069 -1.442,2.935 -4.424,4.768 -7.706,5.152 -0.566,0.066 -2.116,0.044 -2.706,10e-4 l -13.528,-0.998 c -0.544,-0.04 -1.965,-0.224 -2.475,-0.353 -3.216,-0.816 -5.919,-3.052 -6.945,-6.137 -0.008,-0.024 -0.015,-0.048 -0.024,-0.072 -0.337,-0.973 -0.583,-2.161 -0.683,-3.536 0,-0.005 -0.007,-0.071 -0.007,-0.076 -0.084,-1.206 -0.096,-2.719 -0.119,-4.795 -0.098,-9.078 -0.367,-28.003 -6.637,-45.779 -7.134,-20.232 -20.253,-34.261 -41.056,-40.396 -1.02,-0.301 -2.057,-0.625 -3.12,-0.857 -20.177,-4.422 -35.953,-1.705 -50.7,2.204 -31.521,8.355 -39.861,22.481 -46.747,44.702 -1.5,4.833 -2.953,9.87 -4.657,14.992 -0.982,2.952 -2.977,5.315 -5.03,7.334 -1.637,1.611 -2.734,3.982 -4.072,6.035 -1.282,1.966 -4.945,8.357 -7.166,9.249 -0.081,0.033 -0.297,0.467 -0.357,0.653 l -0.852,2.647 c -0.576,1.789 -1.811,10.473 -0.091,11.106 0.052,0.054 0.083,0.171 0.211,0.306 0.125,0.132 0.279,0.171 0.377,0.195"
           style="fill:#202020;fill-opacity:1;fill-rule:nonzero;stroke:none"
           id="path118554"
           inkscape:connector-curvature="0" /><path
           d="m 56.725,300.489 c 16.134,3.961 56.859,13.181 97.393,16.151 18.475,1.353 35.489,1.302 50.046,-0.482 7.664,-0.94 15.612,-1.084 23.661,-0.49 l 29.599,2.184 c 8.049,0.593 15.89,1.902 23.333,3.956 14.138,3.901 30.959,6.449 49.433,7.82 40.532,3.012 82.169,-0.132 98.71,-1.684 0.146,-0.014 0.355,-0.039 0.545,-0.173 0.197,-0.138 0.283,-0.276 0.379,-0.345 1.373,-0.438 1.645,-5.604 1.399,-7.09 l -1.813,-10.938 c -0.037,-0.224 -0.196,-1.037 -0.278,-1.245 -0.11,-0.386 -0.319,-0.743 -0.597,-1.023 -0.598,-0.603 -1.268,-1.165 -1.99,-1.658 -2.767,-1.89 -4.972,-4.472 -6.2,-7.448 -1.758,-4.24 -2.988,-8.681 -3.729,-13.148 -1.162,-7.016 -2.315,-13.716 -3.944,-19.991 -4.586,-17.672 -12.866,-29.982 -33.711,-40.822 -13.445,-6.992 -28.908,-12.243 -50.589,-11.454 -1.111,0.04 -2.216,0.163 -3.294,0.282 h -0.004 c -22.157,2.348 -37.789,13.963 -48.266,33.399 -9.128,16.932 -12.235,36.118 -13.674,45.152 -0.336,2.115 -0.574,3.631 -0.833,4.783 -0.301,1.334 -0.724,2.478 -1.216,3.415 -0.013,0.023 -0.024,0.047 -0.036,0.069 -1.526,2.964 -4.549,4.842 -7.891,5.255 -0.63,0.078 -2.104,0.068 -2.761,0.019 l -13.795,-1.017 c -0.604,-0.045 -1.955,-0.228 -2.521,-0.376 -3.273,-0.851 -6.015,-3.133 -7.121,-6.256 -0.009,-0.023 -0.017,-0.048 -0.026,-0.073 -0.37,-1.011 -0.638,-2.219 -0.747,-3.6 0,-0.004 -0.008,-0.076 -0.008,-0.08 -0.092,-1.218 -0.105,-2.752 -0.127,-4.892 -0.097,-9.149 -0.356,-28.577 -6.897,-46.656 -7.511,-20.76 -21.261,-34.569 -42.84,-40.112 -1.053,-0.271 -2.128,-0.561 -3.224,-0.765 -21.328,-3.968 -37.266,-0.641 -51.724,3.905 -28.231,8.877 -36.22,22.619 -42.822,43.98 -1.417,4.576 -2.796,9.337 -4.4,14.178 -0.925,2.789 -2.748,5.066 -4.568,7.068 -1.559,1.713 -2.637,4.084 -3.999,6.127 -1.448,2.17 -5.085,8.011 -7.553,9.003 -0.09,0.037 -0.303,0.439 -0.37,0.646 l -0.855,2.654 c -0.493,1.534 -2.107,10.701 -0.633,11.243 0.042,0.056 0.061,0.18 0.187,0.325 0.123,0.141 0.278,0.181 0.371,0.204"
           style="fill:#232323;fill-opacity:1;fill-rule:nonzero;stroke:none"
           id="path118556"
           inkscape:connector-curvature="0" /><path
           d="m 56.835,300.04 c 16.049,3.941 56.771,13.165 97.283,16.136 18.573,1.363 35.539,1.295 49.99,-0.477 7.675,-0.941 15.656,-1.089 23.75,-0.491 l 29.6,2.183 c 8.095,0.597 15.968,1.915 23.422,3.972 14.034,3.873 30.807,6.43 49.379,7.807 40.51,3.006 82.143,-0.143 98.598,-1.686 0.131,-0.012 0.333,-0.036 0.516,-0.178 0.188,-0.146 0.254,-0.29 0.332,-0.357 1.146,-0.366 1.204,-5.676 0.999,-6.914 l -1.739,-10.502 c -0.031,-0.186 -0.191,-1.023 -0.259,-1.196 -0.1,-0.373 -0.304,-0.715 -0.579,-0.976 -0.592,-0.562 -1.241,-1.092 -1.931,-1.569 -2.645,-1.828 -4.779,-4.277 -6.046,-7.088 -1.813,-4.009 -3.078,-8.252 -3.8,-12.547 -1.127,-6.719 -2.221,-13.154 -3.693,-19.208 -4.258,-17.513 -11.679,-30.048 -30.301,-41.024 -13.005,-7.667 -28.604,-13.439 -51.353,-13.286 -1.14,0.007 -2.275,0.091 -3.383,0.174 h -0.004 c -22.838,1.644 -39.058,12.956 -49.988,32.858 -9.44,17.189 -12.61,36.873 -14.059,45.977 -0.345,2.177 -0.588,3.715 -0.855,4.873 -0.31,1.337 -0.755,2.499 -1.283,3.467 -0.013,0.024 -0.026,0.048 -0.038,0.071 -1.608,2.992 -4.673,4.915 -8.076,5.358 -0.692,0.09 -2.093,0.091 -2.815,0.038 l -14.062,-1.038 c -0.665,-0.049 -1.947,-0.232 -2.568,-0.398 -3.33,-0.887 -6.111,-3.215 -7.298,-6.374 -0.009,-0.025 -0.018,-0.05 -0.028,-0.075 -0.403,-1.049 -0.692,-2.278 -0.81,-3.664 0,-0.003 -0.009,-0.082 -0.009,-0.085 -0.1,-1.23 -0.113,-2.786 -0.135,-4.988 -0.096,-9.221 -0.345,-29.151 -7.158,-47.532 -7.89,-21.288 -22.268,-34.882 -44.623,-39.831 -1.087,-0.241 -2.199,-0.495 -3.327,-0.671 -22.479,-3.495 -38.591,0.359 -52.75,5.605 -24.97,9.253 -32.578,22.756 -38.896,43.256 -1.334,4.321 -2.64,8.806 -4.144,13.366 -0.866,2.626 -2.51,4.824 -4.106,6.801 -1.472,1.823 -2.538,4.187 -3.926,6.221 -1.617,2.369 -5.223,7.665 -7.938,8.756 -0.099,0.04 -0.31,0.411 -0.384,0.638 l -0.857,2.662 c -0.412,1.278 -2.404,10.929 -1.175,11.381 0.031,0.056 0.038,0.188 0.162,0.343 0.121,0.151 0.278,0.191 0.365,0.212"
           style="fill:#272727;fill-opacity:1;fill-rule:nonzero;stroke:none"
           id="path118558"
           inkscape:connector-curvature="0" /><path
           d="m 56.945,299.592 c 15.964,3.919 56.683,13.148 97.172,16.121 18.672,1.371 35.59,1.287 49.935,-0.472 7.686,-0.943 15.699,-1.095 23.841,-0.494 l 29.599,2.184 c 8.141,0.6 16.045,1.926 23.51,3.986 13.933,3.846 30.654,6.412 49.325,7.795 40.487,3.001 82.119,-0.152 98.487,-1.687 0.118,-0.012 0.312,-0.034 0.486,-0.184 0.179,-0.153 0.226,-0.304 0.287,-0.37 0.916,-0.292 0.764,-5.747 0.6,-6.738 l -1.668,-10.065 c -0.025,-0.149 -0.184,-1.009 -0.239,-1.147 -0.09,-0.36 -0.288,-0.688 -0.56,-0.929 -0.587,-0.521 -1.215,-1.02 -1.872,-1.479 -2.525,-1.766 -4.587,-4.084 -5.892,-6.73 -1.87,-3.778 -3.169,-7.822 -3.872,-11.945 -1.094,-6.423 -2.125,-12.592 -3.442,-18.424 -3.922,-17.357 -10.44,-30.193 -26.89,-41.228 -12.525,-8.402 -28.306,-14.618 -52.118,-15.117 -1.169,-0.024 -2.335,0.019 -3.472,0.066 h -0.004 c -23.517,0.935 -40.291,11.969 -51.709,32.317 -9.72,17.465 -12.987,37.627 -14.445,46.803 -0.356,2.239 -0.601,3.798 -0.877,4.963 -0.318,1.34 -0.785,2.519 -1.351,3.519 -0.013,0.024 -0.026,0.048 -0.04,0.072 -1.689,3.02 -4.797,4.987 -8.26,5.46 -0.754,0.103 -2.081,0.114 -2.869,0.056 l -14.33,-1.057 c -0.724,-0.053 -1.937,-0.235 -2.614,-0.42 -3.388,-0.924 -6.207,-3.298 -7.475,-6.494 -0.009,-0.025 -0.019,-0.05 -0.029,-0.075 -0.437,-1.086 -0.747,-2.337 -0.874,-3.729 0,-0.002 -0.01,-0.087 -0.01,-0.089 -0.107,-1.242 -0.121,-2.82 -0.144,-5.085 -0.095,-9.293 -0.367,-29.712 -7.417,-48.408 -8.307,-21.8 -23.276,-35.198 -46.407,-39.548 -1.121,-0.211 -2.269,-0.43 -3.43,-0.578 -23.627,-3.005 -39.946,1.28 -53.775,7.305 -21.764,9.485 -28.936,22.894 -34.97,42.533 -1.252,4.065 -2.485,8.275 -3.888,12.553 -0.808,2.462 -2.263,4.586 -3.644,6.534 -1.375,1.939 -2.439,4.289 -3.853,6.315 -1.791,2.566 -5.362,7.319 -8.324,8.509 -0.108,0.044 -0.318,0.383 -0.398,0.632 l -0.859,2.669 c -0.33,1.022 -2.701,11.157 -1.718,11.519 0.022,0.055 0.016,0.195 0.138,0.36 0.12,0.161 0.277,0.2 0.359,0.221"
           style="fill:#2a2a2a;fill-opacity:1;fill-rule:nonzero;stroke:none"
           id="path118560"
           inkscape:connector-curvature="0" /><path
           d="m 57.056,299.143 c 15.879,3.899 56.594,13.132 97.061,16.107 18.769,1.38 35.639,1.278 49.879,-0.468 7.697,-0.944 15.743,-1.1 23.93,-0.496 l 29.6,2.184 c 8.187,0.604 16.123,1.939 23.599,4.002 13.83,3.817 30.502,6.393 49.271,7.782 40.465,2.996 82.098,-0.126 98.375,-1.689 0.103,-0.01 0.292,-0.03 0.457,-0.188 0.169,-0.162 0.198,-0.32 0.241,-0.383 0.686,-0.22 0.322,-5.819 0.199,-6.562 l -1.595,-9.628 c -0.018,-0.113 -0.177,-0.996 -0.219,-1.1 -0.079,-0.345 -0.273,-0.659 -0.542,-0.881 -0.581,-0.479 -1.188,-0.947 -1.813,-1.389 -2.403,-1.705 -4.395,-3.891 -5.737,-6.371 -1.926,-3.546 -3.26,-7.394 -3.944,-11.344 -1.06,-6.127 -2.026,-12.031 -3.192,-17.641 -3.575,-17.201 -9.13,-30.404 -23.478,-41.43 -11.983,-9.208 -28.012,-15.784 -52.883,-16.95 -1.198,-0.055 -2.395,-0.053 -3.561,-0.041 H 332.7 c -24.195,0.222 -41.565,10.959 -53.43,31.777 -10.037,17.72 -13.364,38.38 -14.832,47.629 -0.365,2.3 -0.614,3.879 -0.898,5.052 -0.327,1.343 -0.816,2.539 -1.418,3.571 -0.014,0.024 -0.028,0.048 -0.042,0.072 -1.771,3.049 -4.921,5.061 -8.445,5.563 -0.817,0.117 -2.071,0.138 -2.924,0.075 l -14.596,-1.077 c -0.785,-0.058 -1.929,-0.238 -2.662,-0.442 -3.445,-0.96 -6.303,-3.38 -7.65,-6.613 -0.011,-0.025 -0.021,-0.051 -0.032,-0.076 -0.471,-1.124 -0.801,-2.397 -0.938,-3.792 0,-0.002 -0.01,-0.093 -0.01,-0.095 -0.115,-1.254 -0.129,-2.854 -0.152,-5.182 -0.094,-9.364 -0.352,-30.286 -7.678,-49.283 -8.68,-22.331 -24.284,-35.517 -48.19,-39.268 -1.155,-0.18 -2.339,-0.362 -3.532,-0.483 -24.773,-2.501 -41.361,2.093 -54.801,9.006 -18.636,9.585 -25.295,23.03 -31.045,41.809 -1.169,3.809 -2.328,7.743 -3.632,11.741 -0.75,2.298 -2.005,4.351 -3.182,6.267 -1.264,2.059 -2.34,4.39 -3.779,6.407 -1.97,2.76 -5.502,6.974 -8.71,8.263 -0.117,0.047 -0.326,0.356 -0.413,0.625 l -0.861,2.676 c -0.247,0.767 -2.997,11.385 -2.26,11.657 0.012,0.055 -0.006,0.203 0.114,0.378 0.118,0.17 0.277,0.21 0.354,0.229"
           style="fill:#2e2e2e;fill-opacity:1;fill-rule:nonzero;stroke:none"
           id="path118562"
           inkscape:connector-curvature="0" /><path
           d="m 57.166,298.695 c 15.794,3.878 56.506,13.116 96.95,16.092 18.868,1.389 35.69,1.27 49.823,-0.463 7.709,-0.945 15.788,-1.106 24.021,-0.498 l 29.6,2.183 c 8.234,0.608 16.201,1.952 23.688,4.018 13.727,3.788 30.349,6.374 49.216,7.769 40.443,2.991 82.075,-0.128 98.264,-1.691 0.089,-0.008 0.27,-0.027 0.426,-0.193 0.161,-0.17 0.17,-0.334 0.196,-0.396 0.458,-0.146 -0.118,-5.891 -0.2,-6.386 l -1.523,-9.192 c -0.012,-0.074 -0.17,-0.981 -0.197,-1.05 -0.071,-0.332 -0.26,-0.631 -0.527,-0.834 -0.574,-0.438 -1.161,-0.874 -1.753,-1.3 -2.283,-1.642 -4.202,-3.696 -5.583,-6.012 -1.981,-3.315 -3.35,-6.965 -4.015,-10.742 -1.027,-5.83 -1.924,-11.47 -2.942,-16.857 -3.218,-17.048 -7.732,-30.664 -20.066,-41.633 -11.347,-10.09 -27.725,-16.936 -53.648,-18.781 -1.227,-0.088 -2.455,-0.126 -3.65,-0.149 h -0.004 c -24.873,-0.494 -42.84,9.949 -55.152,31.234 -10.353,17.977 -13.739,39.136 -15.217,48.455 -0.374,2.363 -0.627,3.963 -0.919,5.143 -0.337,1.345 -0.848,2.559 -1.486,3.623 l -0.044,0.073 c -1.854,3.077 -5.044,5.133 -8.63,5.666 -0.879,0.13 -2.06,0.161 -2.978,0.093 l -14.863,-1.096 c -0.846,-0.063 -1.921,-0.242 -2.709,-0.466 -3.503,-0.995 -6.399,-3.461 -7.827,-6.731 -0.011,-0.026 -0.022,-0.052 -0.033,-0.077 -0.506,-1.161 -0.856,-2.456 -1.002,-3.857 0,-10e-4 -0.01,-0.098 -0.01,-0.099 -0.123,-1.266 -0.138,-2.887 -0.161,-5.279 -0.093,-9.435 -0.336,-30.861 -7.939,-50.158 -9.053,-22.861 -25.287,-35.88 -49.973,-38.986 -1.188,-0.153 -2.409,-0.296 -3.635,-0.389 -25.915,-1.982 -42.881,2.768 -55.826,10.706 -15.622,9.578 -21.654,23.168 -27.12,41.085 -1.086,3.553 -2.172,7.211 -3.376,10.928 -0.691,2.135 -1.738,4.115 -2.719,6 -1.139,2.184 -2.24,4.49 -3.706,6.501 -2.152,2.949 -5.641,6.627 -9.096,8.016 -0.126,0.051 -0.333,0.328 -0.426,0.618 l -0.865,2.683 c -0.164,0.511 -3.293,11.613 -2.801,11.795 10e-4,0.055 -0.029,0.211 0.089,0.396 0.116,0.18 0.276,0.22 0.348,0.238"
           style="fill:#313131;fill-opacity:1;fill-rule:nonzero;stroke:none"
           id="path118564"
           inkscape:connector-curvature="0" /><path
           d="m 57.276,298.246 c 15.709,3.857 56.418,13.099 96.84,16.078 18.966,1.397 35.739,1.261 49.767,-0.459 7.721,-0.946 15.831,-1.111 24.112,-0.5 l 29.599,2.184 c 8.28,0.611 16.279,1.964 23.777,4.033 13.624,3.76 30.196,6.356 49.162,7.756 40.421,2.986 82.051,-0.126 98.152,-1.692 0.075,-0.008 0.249,-0.025 0.397,-0.199 0.152,-0.177 0.142,-0.348 0.149,-0.408 0.23,-0.074 -0.558,-5.962 -0.599,-6.21 l -1.45,-8.755 c -0.006,-0.038 -0.164,-0.968 -0.178,-1.003 -0.061,-0.318 -0.245,-0.602 -0.509,-0.786 -0.568,-0.396 -1.134,-0.802 -1.693,-1.21 -2.162,-1.58 -4.009,-3.503 -5.429,-5.654 -2.037,-3.083 -3.441,-6.535 -4.088,-10.141 -0.991,-5.532 -1.819,-10.908 -2.69,-16.072 -2.851,-16.895 -6.23,-30.943 -16.656,-41.836 -10.577,-11.052 -27.443,-18.076 -54.414,-20.614 -1.255,-0.118 -2.513,-0.198 -3.737,-0.256 h -0.004 c -25.547,-1.241 -44.114,8.939 -56.873,30.693 -10.67,18.233 -14.116,39.89 -15.603,49.281 -0.384,2.425 -0.64,4.046 -0.941,5.232 -0.346,1.349 -0.877,2.581 -1.554,3.675 -0.014,0.025 -0.03,0.05 -0.045,0.075 -1.936,3.105 -5.167,5.206 -8.816,5.769 -0.94,0.145 -2.047,0.183 -3.031,0.111 l -15.131,-1.116 c -0.906,-0.067 -1.912,-0.243 -2.755,-0.488 -3.561,-1.032 -6.495,-3.544 -8.003,-6.851 -0.012,-0.026 -0.024,-0.051 -0.035,-0.078 -0.541,-1.197 -0.911,-2.514 -1.066,-3.92 0,-10e-4 -0.011,-0.104 -0.011,-0.105 -0.131,-1.278 -0.146,-2.92 -0.17,-5.375 -0.092,-9.507 -0.32,-31.436 -8.198,-51.034 -9.427,-23.391 -26.301,-36.183 -51.757,-38.704 -1.222,-0.123 -2.479,-0.229 -3.739,-0.296 -27.051,-1.449 -44.581,3.269 -56.85,12.406 -12.769,9.51 -18.013,23.306 -23.195,40.363 -1.003,3.297 -2.016,6.679 -3.119,10.115 -0.633,1.972 -1.459,3.877 -2.258,5.733 -0.994,2.312 -2.139,4.591 -3.633,6.594 -2.337,3.137 -5.779,6.282 -9.481,7.77 -0.135,0.055 -0.34,0.3 -0.441,0.61 l -0.866,2.691 c -0.083,0.256 -3.589,11.842 -3.344,11.932 -0.008,0.057 -0.051,0.22 0.066,0.415 0.113,0.19 0.274,0.229 0.341,0.246"
           style="fill:#353535;fill-opacity:1;fill-rule:nonzero;stroke:none"
           id="path118566"
           inkscape:connector-curvature="0" /><path
           d="m 340.326,212.424 c -26.222,-1.933 -45.388,7.93 -58.595,30.152 -10.986,18.488 -14.492,40.645 -15.988,50.107 -0.393,2.487 -0.653,4.13 -0.963,5.322 -1.623,6.184 -7.398,10.272 -13.755,9.804 l -15.397,-1.136 C 229.3,306.206 224.206,301.358 223.48,295.13 l -0.012,-0.109 c -0.138,-1.291 -0.154,-2.955 -0.178,-5.472 -0.091,-9.579 -0.305,-32.011 -8.458,-51.91 -9.801,-23.92 -27.314,-36.488 -53.541,-38.422 -1.256,-0.093 -2.548,-0.161 -3.842,-0.203 -28.183,-0.914 -46.574,3.568 -57.876,14.107 -10.14,9.454 -14.371,23.442 -19.269,39.639 -1.447,4.783 -2.943,9.729 -4.658,14.769 -2.209,6.487 -7.103,11.668 -13.427,14.21 -0.145,0.058 -0.348,0.272 -0.455,0.603 l -4.755,14.768 c -0.018,0.057 -0.073,0.228 0.041,0.432 0.113,0.201 0.275,0.24 0.336,0.256 15.625,3.836 56.331,13.082 96.729,16.063 19.065,1.406 35.79,1.253 49.712,-0.454 7.732,-0.948 15.875,-1.117 24.201,-0.503 l 29.6,2.184 c 8.326,0.614 16.356,1.976 23.866,4.049 13.521,3.731 30.043,6.337 49.108,7.743 40.399,2.98 82.02,-0.192 98.04,-1.694 0.061,-0.007 0.227,-0.022 0.367,-0.204 0.143,-0.186 0.114,-0.362 0.104,-0.421 l -2.535,-15.306 c -0.051,-0.304 -0.229,-0.574 -0.491,-0.739 -5.857,-3.697 -9.89,-9.512 -11.067,-15.955 -0.958,-5.236 -1.712,-10.347 -2.441,-15.289 -2.469,-16.741 -4.6,-31.198 -13.244,-42.039 -9.633,-12.082 -27.166,-19.213 -55.179,-22.446 -1.285,-0.148 -2.573,-0.27 -3.826,-0.362 -10e-4,0 -0.002,0 -0.004,-0.001"
           style="fill:#383838;fill-opacity:1;fill-rule:nonzero;stroke:none"
           id="path118568"
           inkscape:connector-curvature="0" /><path
           d="m 161.11,201.675 c -1.225,-0.091 -2.484,-0.157 -3.741,-0.198 -26.433,-0.858 -43.824,3.024 -54.727,12.215 -9.7,8.174 -14.119,20.653 -18.504,34.923 -2.561,8.331 -2.344,17.437 0.608,25.643 l 2.457,6.828 c 5.071,14.095 17.36,24.197 32.071,26.366 12.315,1.816 24.098,3.145 35.018,3.95 9.015,0.665 17.587,0.983 25.478,0.944 9.529,-0.046 18.814,-3.586 26.145,-9.968 10.172,-8.854 15.269,-22.119 13.633,-35.485 -4.989,-40.784 -24.648,-62.726 -58.43,-65.218 z"
           style="fill:#383838;fill-opacity:1;fill-rule:nonzero;stroke:none"
           id="path118570"
           inkscape:connector-curvature="0" /><path
           d="m 161.093,201.904 c -1.222,-0.09 -2.477,-0.156 -3.732,-0.196 -26.372,-0.855 -43.713,3.009 -54.57,12.16 -9.651,8.134 -14.058,20.58 -18.433,34.815 -2.545,8.283 -2.33,17.337 0.605,25.497 l 2.457,6.827 c 5.042,14.015 17.261,24.06 31.888,26.216 12.309,1.816 24.086,3.144 35.001,3.949 9.009,0.665 17.575,0.982 25.46,0.943 9.473,-0.046 18.705,-3.565 25.994,-9.91 10.114,-8.805 15.182,-21.995 13.556,-35.285 -4.974,-40.658 -24.562,-62.531 -58.218,-65.015 z"
           style="fill:#353535;fill-opacity:1;fill-rule:nonzero;stroke:none"
           id="path118572"
           inkscape:connector-curvature="0" /><path
           d="m 161.076,202.135 c -1.219,-0.09 -2.471,-0.156 -3.722,-0.197 -26.312,-0.853 -43.604,2.994 -54.415,12.107 -9.603,8.094 -13.996,20.507 -18.36,34.706 -2.531,8.235 -2.317,17.237 0.602,25.351 l 2.456,6.827 c 5.013,13.935 17.162,23.922 31.705,26.066 12.303,1.815 24.074,3.142 34.984,3.947 9.003,0.664 17.563,0.981 25.442,0.942 9.418,-0.045 18.596,-3.545 25.843,-9.854 10.057,-8.753 15.096,-21.867 13.479,-35.082 -4.96,-40.533 -24.475,-62.339 -58.006,-64.812 z"
           style="fill:#313131;fill-opacity:1;fill-rule:nonzero;stroke:none"
           id="path118574"
           inkscape:connector-curvature="0" /><path
           d="m 161.059,202.365 c -1.216,-0.09 -2.465,-0.155 -3.713,-0.196 -26.251,-0.852 -43.493,2.978 -54.258,12.053 -9.555,8.052 -13.935,20.432 -18.288,34.596 -2.517,8.189 -2.304,17.139 0.598,25.205 l 2.456,6.828 c 4.985,13.854 17.063,23.784 31.521,25.915 12.297,1.814 24.063,3.141 34.968,3.945 8.997,0.664 17.551,0.981 25.424,0.942 9.362,-0.045 18.487,-3.524 25.692,-9.797 9.999,-8.703 15.009,-21.742 13.401,-34.879 -4.943,-40.409 -24.388,-62.147 -57.793,-64.611 z"
           style="fill:#2e2e2e;fill-opacity:1;fill-rule:nonzero;stroke:none"
           id="path118576"
           inkscape:connector-curvature="0" /><path
           d="m 161.042,202.596 c -1.213,-0.09 -2.459,-0.156 -3.703,-0.196 -26.192,-0.849 -43.383,2.963 -54.102,11.998 -9.507,8.012 -13.874,20.36 -18.216,34.489 -2.502,8.14 -2.291,17.038 0.594,25.058 l 2.457,6.828 c 4.955,13.774 16.963,23.646 31.337,25.765 12.291,1.813 24.05,3.139 34.951,3.943 8.991,0.664 17.539,0.98 25.406,0.941 9.307,-0.045 18.379,-3.504 25.542,-9.74 9.941,-8.653 14.921,-21.616 13.323,-34.678 -4.928,-40.283 -24.301,-61.952 -57.581,-64.407 z"
           style="fill:#2a2a2a;fill-opacity:1;fill-rule:nonzero;stroke:none"
           id="path118578"
           inkscape:connector-curvature="0" /><path
           d="m 161.025,202.826 c -1.21,-0.09 -2.452,-0.155 -3.693,-0.195 -26.132,-0.848 -43.273,2.947 -53.946,11.944 -9.459,7.971 -13.814,20.286 -18.144,34.379 -2.488,8.093 -2.278,16.94 0.591,24.913 l 2.456,6.828 c 4.927,13.693 16.864,23.508 31.153,25.614 12.286,1.813 24.039,3.138 34.934,3.942 8.986,0.663 17.528,0.979 25.388,0.94 9.253,-0.044 18.27,-3.483 25.392,-9.683 9.883,-8.603 14.835,-21.49 13.246,-34.475 -4.913,-40.159 -24.215,-61.761 -57.369,-64.207 z"
           style="fill:#272727;fill-opacity:1;fill-rule:nonzero;stroke:none"
           id="path118580"
           inkscape:connector-curvature="0" /><path
           d="m 161.008,203.057 c -1.207,-0.09 -2.446,-0.155 -3.684,-0.196 -26.071,-0.845 -43.163,2.933 -53.789,11.891 -9.411,7.931 -13.753,20.213 -18.073,34.27 -2.473,8.045 -2.264,16.84 0.588,24.767 l 2.456,6.828 c 4.898,13.613 16.765,23.37 30.97,25.464 12.279,1.811 24.027,3.136 34.918,3.94 8.979,0.662 17.515,0.979 25.369,0.939 9.197,-0.044 18.161,-3.462 25.242,-9.627 9.825,-8.551 14.747,-21.363 13.168,-34.272 -4.898,-40.034 -24.128,-61.568 -57.157,-64.004 z"
           style="fill:#232323;fill-opacity:1;fill-rule:nonzero;stroke:none"
           id="path118582"
           inkscape:connector-curvature="0" /><path
           d="m 160.991,203.287 c -1.203,-0.089 -2.44,-0.154 -3.675,-0.194 -26.01,-0.844 -43.052,2.917 -53.632,11.835 -9.363,7.89 -13.692,20.14 -18.001,34.162 -2.458,7.998 -2.25,16.741 0.584,24.621 l 2.457,6.827 c 4.869,13.533 16.666,23.233 30.786,25.315 12.273,1.81 24.015,3.134 34.901,3.938 8.973,0.662 17.503,0.978 25.351,0.938 9.142,-0.043 18.052,-3.442 25.091,-9.569 9.767,-8.502 14.661,-21.239 13.091,-34.072 C 213.061,227.18 193.902,205.715 161,203.287 Z"
           style="fill:#202020;fill-opacity:1;fill-rule:nonzero;stroke:none"
           id="path118584"
           inkscape:connector-curvature="0" /><path
           d="m 160.974,203.517 c -1.201,-0.088 -2.433,-0.154 -3.665,-0.194 -25.95,-0.842 -42.943,2.902 -53.477,11.781 -9.314,7.85 -13.63,20.068 -17.928,34.054 -2.444,7.95 -2.237,16.641 0.58,24.474 l 2.457,6.828 c 4.84,13.453 16.567,23.095 30.602,25.164 12.268,1.809 24.004,3.133 34.885,3.936 8.968,0.662 17.49,0.978 25.333,0.939 9.086,-0.044 17.944,-3.422 24.941,-9.514 9.709,-8.451 14.573,-21.112 13.013,-33.868 -4.868,-39.784 -23.955,-61.181 -56.733,-63.599 z"
           style="fill:#1c1c1c;fill-opacity:1;fill-rule:nonzero;stroke:none"
           id="path118586"
           inkscape:connector-curvature="0" /><path
           d="m 160.957,203.747 c -1.197,-0.088 -2.427,-0.153 -3.656,-0.193 -25.889,-0.84 -42.832,2.886 -53.32,11.727 -9.266,7.81 -13.569,19.994 -17.856,33.945 -2.43,7.902 -2.224,16.542 0.577,24.328 l 2.457,6.828 c 4.811,13.372 16.466,22.957 30.418,25.014 12.261,1.808 23.992,3.131 34.868,3.934 8.961,0.661 17.479,0.977 25.315,0.938 9.031,-0.044 17.835,-3.402 24.79,-9.456 9.651,-8.402 14.487,-20.987 12.935,-33.667 -4.852,-39.659 -23.868,-60.989 -56.52,-63.397 z"
           style="fill:#181818;fill-opacity:1;fill-rule:nonzero;stroke:none"
           id="path118588"
           inkscape:connector-curvature="0" /><path
           d="m 160.94,203.978 c -1.194,-0.088 -2.42,-0.154 -3.646,-0.194 -25.829,-0.837 -42.723,2.872 -53.164,11.674 -9.218,7.769 -13.508,19.92 -17.785,33.835 -2.414,7.856 -2.21,16.443 0.574,24.183 l 2.457,6.828 c 4.782,13.292 16.368,22.819 30.235,24.863 12.255,1.808 23.98,3.13 34.85,3.933 8.956,0.66 17.468,0.976 25.298,0.937 8.975,-0.043 17.726,-3.382 24.639,-9.4 9.594,-8.35 14.4,-20.86 12.858,-33.465 -4.837,-39.533 -23.781,-60.794 -56.308,-63.193 z"
           style="fill:#151515;fill-opacity:1;fill-rule:nonzero;stroke:none"
           id="path118590"
           inkscape:connector-curvature="0" /><path
           d="m 160.923,204.208 c -1.191,-0.088 -2.414,-0.152 -3.636,-0.192 -25.769,-0.836 -42.613,2.856 -53.008,11.619 -9.171,7.727 -13.447,19.846 -17.713,33.726 -2.4,7.808 -2.197,16.344 0.571,24.037 l 2.456,6.828 c 4.753,13.212 16.269,22.681 30.052,24.712 12.248,1.807 23.968,3.129 34.834,3.931 8.95,0.66 17.455,0.976 25.279,0.937 8.92,-0.043 17.617,-3.361 24.489,-9.343 9.535,-8.3 14.313,-20.734 12.78,-33.262 -4.822,-39.409 -23.695,-60.602 -56.095,-62.993 z"
           style="fill:#121212;fill-opacity:1;fill-rule:nonzero;stroke:none"
           id="path118592"
           inkscape:connector-curvature="0" /><path
           d="m 160.906,204.438 c -1.188,-0.087 -2.408,-0.152 -3.627,-0.192 -25.708,-0.834 -42.503,2.841 -52.851,11.565 -9.122,7.687 -13.386,19.774 -17.641,33.618 -2.386,7.76 -2.184,16.244 0.567,23.891 l 2.457,6.827 c 4.724,13.132 16.168,22.543 29.867,24.563 12.243,1.806 23.957,3.128 34.818,3.929 8.943,0.66 17.442,0.975 25.26,0.936 8.866,-0.043 17.509,-3.341 24.339,-9.286 9.477,-8.25 14.226,-20.608 12.703,-33.06 -4.807,-39.284 -23.609,-60.41 -55.883,-62.791 z"
           style="fill:#0e0e0e;fill-opacity:1;fill-rule:nonzero;stroke:none"
           id="path118594"
           inkscape:connector-curvature="0" /><path
           d="m 160.889,204.668 c -1.185,-0.087 -2.402,-0.151 -3.618,-0.191 -25.647,-0.831 -42.392,2.826 -52.694,11.51 -9.075,7.648 -13.326,19.701 -17.57,33.51 -2.37,7.712 -2.17,16.145 0.564,23.745 l 2.457,6.827 c 4.695,13.052 16.07,22.406 29.684,24.412 12.237,1.806 23.945,3.127 34.801,3.928 8.938,0.659 17.43,0.974 25.242,0.935 8.81,-0.042 17.4,-3.32 24.188,-9.229 9.42,-8.2 14.14,-20.483 12.625,-32.858 -4.791,-39.159 -23.521,-60.216 -55.671,-62.588 z"
           style="fill:#0b0b0b;fill-opacity:1;fill-rule:nonzero;stroke:none"
           id="path118596"
           inkscape:connector-curvature="0" /><path
           d="m 160.872,204.898 c -1.182,-0.086 -2.395,-0.151 -3.608,-0.19 -25.587,-0.83 -42.283,2.811 -52.539,11.456 -9.026,7.607 -13.264,19.628 -17.497,33.401 -2.356,7.665 -2.157,16.045 0.561,23.599 l 2.456,6.827 c 4.667,12.971 15.971,22.267 29.501,24.262 12.23,1.804 23.933,3.125 34.784,3.925 8.931,0.659 17.418,0.973 25.224,0.935 8.755,-0.042 17.291,-3.3 24.038,-9.173 9.361,-8.148 14.052,-20.356 12.547,-32.655 -4.776,-39.034 -23.435,-60.023 -55.459,-62.386 z"
           style="fill:#070707;fill-opacity:1;fill-rule:nonzero;stroke:none"
           id="path118598"
           inkscape:connector-curvature="0" /><path
           d="m 160.855,205.129 c -1.179,-0.087 -2.389,-0.15 -3.599,-0.191 -25.527,-0.828 -42.172,2.795 -52.382,11.403 -8.978,7.565 -13.203,19.555 -17.425,33.292 -2.342,7.617 -2.144,15.946 0.557,23.452 l 2.456,6.828 c 4.638,12.89 15.872,22.129 29.317,24.111 12.225,1.804 23.922,3.124 34.767,3.924 8.927,0.658 17.407,0.973 25.207,0.934 8.7,-0.042 17.183,-3.279 23.887,-9.115 9.304,-8.1 13.965,-20.231 12.47,-32.454 -4.76,-38.909 -23.348,-59.831 -55.247,-62.183 z"
           style="fill:#040404;fill-opacity:1;fill-rule:nonzero;stroke:none"
           id="path118600"
           inkscape:connector-curvature="0" /><path
           d="m 160.838,205.359 c -1.175,-0.087 -2.383,-0.15 -3.589,-0.19 -25.466,-0.825 -42.062,2.78 -52.226,11.349 -8.93,7.525 -13.142,19.48 -17.353,33.183 -2.327,7.57 -2.13,15.846 0.553,23.306 l 2.457,6.827 c 4.609,12.811 15.772,21.992 29.133,23.962 12.218,1.802 23.91,3.122 34.75,3.922 8.92,0.657 17.395,0.972 25.189,0.933 8.644,-0.042 17.074,-3.258 23.736,-9.059 9.246,-8.048 13.879,-20.104 12.393,-32.251 -4.745,-38.784 -23.261,-59.637 -55.035,-61.981 z"
           style="fill:#000000;fill-opacity:1;fill-rule:nonzero;stroke:none"
           id="path118602"
           inkscape:connector-curvature="0" /><g
           id="g118604"><g
             id="g118606"><g
               id="g118612"><g
                 id="g118614"><path
                   d="m 160.838,205.359 c -1.175,-0.087 -2.383,-0.15 -3.589,-0.19 -25.466,-0.825 -42.062,2.78 -52.226,11.349 -8.93,7.525 -13.142,19.48 -17.353,33.183 -2.327,7.57 -2.13,15.846 0.553,23.306 l 2.457,6.827 c 4.609,12.811 15.772,21.992 29.133,23.962 12.218,1.802 23.91,3.122 34.75,3.922 8.92,0.657 17.395,0.972 25.189,0.933 8.644,-0.042 17.074,-3.258 23.736,-9.059 9.246,-8.048 13.879,-20.104 12.393,-32.251 -4.745,-38.784 -23.261,-59.637 -55.035,-61.981 z"
                   style="fill:url(#linearGradient118620);stroke:none"
                   id="path118622"
                   inkscape:connector-curvature="0" /></g></g></g></g><g
           id="g118624"><g
             id="g118626" /><g
             id="g118670"
             mask="url(#mask118646)"><g
               id="g118672" /><g
               id="g118682"><g
                 clip-path="url(#clipPath118676)"
                 id="g118680"><path
                   d="m 215.791,276.892 c -1.212,8.695 -5.504,16.782 -12.303,22.7 -6.662,5.801 -15.092,9.017 -23.736,9.059 -7.794,0.039 -16.269,-0.276 -25.189,-0.933 -10.84,-0.8 -22.532,-2.12 -34.75,-3.922 -13.361,-1.97 -24.524,-11.151 -29.133,-23.962 l -2.457,-6.827 c -2.383,-6.624 -2.794,-13.889 -1.23,-20.734 30.264,1.999 82.47,7.798 128.798,24.619"
                   style="fill:#f2f2f2;fill-opacity:1;fill-rule:nonzero;stroke:none"
                   id="path118678"
                   inkscape:connector-curvature="0" /></g></g></g></g><path
           d="m 340.145,214.882 c 1.225,0.091 2.479,0.21 3.729,0.353 26.272,3.032 42.905,9.422 52.343,20.115 8.393,9.508 10.934,22.5 13.179,37.26 1.309,8.616 -0.241,17.591 -4.366,25.276 l -3.431,6.393 c -7.085,13.199 -20.724,21.388 -35.594,21.374 -12.448,-0.01 -24.298,-0.424 -35.218,-1.23 -9.016,-0.665 -17.541,-1.609 -25.341,-2.806 -9.419,-1.443 -18.084,-6.307 -24.399,-13.696 -8.763,-10.251 -11.858,-24.121 -8.278,-37.103 10.919,-39.609 33.585,-58.428 67.367,-55.936 z"
           style="fill:#383838;fill-opacity:1;fill-rule:nonzero;stroke:none"
           id="path118684"
           inkscape:connector-curvature="0" /><path
           d="m 340.127,215.112 c 1.223,0.09 2.474,0.209 3.721,0.353 26.213,3.024 42.798,9.39 52.195,20.037 8.353,9.462 10.886,22.419 13.124,37.143 1.303,8.566 -0.239,17.491 -4.34,25.131 l -3.432,6.394 c -7.044,13.123 -20.605,21.266 -35.39,21.252 -12.442,-0.01 -24.286,-0.424 -35.201,-1.23 -9.01,-0.664 -17.53,-1.607 -25.324,-2.803 -9.363,-1.435 -17.978,-6.271 -24.257,-13.618 -8.713,-10.193 -11.79,-23.983 -8.232,-36.891 10.887,-39.488 33.472,-58.251 67.128,-55.769 z"
           style="fill:#353535;fill-opacity:1;fill-rule:nonzero;stroke:none"
           id="path118686"
           inkscape:connector-curvature="0" /><path
           d="m 340.11,215.343 c 1.219,0.09 2.468,0.208 3.711,0.351 26.153,3.017 42.692,9.36 52.049,19.961 8.312,9.414 10.836,22.338 13.068,37.024 1.295,8.518 -0.237,17.391 -4.315,24.988 l -3.432,6.394 c -7.003,13.047 -20.486,21.144 -35.185,21.13 -12.437,-0.01 -24.275,-0.424 -35.185,-1.229 -9.004,-0.664 -17.517,-1.607 -25.305,-2.801 -9.31,-1.427 -17.875,-6.236 -24.118,-13.54 -8.663,-10.134 -11.722,-23.846 -8.184,-36.68 10.853,-39.367 33.357,-58.073 66.889,-55.599 z"
           style="fill:#313131;fill-opacity:1;fill-rule:nonzero;stroke:none"
           id="path118688"
           inkscape:connector-curvature="0" /><path
           d="m 340.094,215.573 c 1.216,0.089 2.461,0.208 3.701,0.351 26.093,3.01 42.585,9.328 51.902,19.884 8.27,9.367 10.785,22.256 13.013,36.906 1.288,8.469 -0.235,17.291 -4.29,24.844 l -3.432,6.393 c -6.964,12.973 -20.368,21.023 -34.982,21.009 -12.431,-0.01 -24.263,-0.424 -35.168,-1.228 -8.998,-0.664 -17.505,-1.606 -25.287,-2.799 -9.255,-1.419 -17.771,-6.2 -23.978,-13.462 -8.612,-10.076 -11.654,-23.709 -8.136,-36.469 10.819,-39.245 33.243,-57.894 66.648,-55.43 z"
           style="fill:#2e2e2e;fill-opacity:1;fill-rule:nonzero;stroke:none"
           id="path118690"
           inkscape:connector-curvature="0" /><path
           d="m 340.076,215.803 c 1.213,0.09 2.455,0.208 3.693,0.35 26.032,3.003 42.478,9.297 51.754,19.808 8.229,9.32 10.737,22.175 12.958,36.788 1.282,8.419 -0.234,17.19 -4.264,24.7 l -3.433,6.393 c -6.923,12.898 -20.249,20.901 -34.778,20.887 -12.424,-0.01 -24.251,-0.423 -35.152,-1.228 -8.991,-0.663 -17.493,-1.604 -25.268,-2.797 -9.2,-1.41 -17.666,-6.162 -23.837,-13.383 -8.563,-10.018 -11.588,-23.571 -8.09,-36.257 10.786,-39.125 33.13,-57.716 66.409,-55.261 z"
           style="fill:#2a2a2a;fill-opacity:1;fill-rule:nonzero;stroke:none"
           id="path118692"
           inkscape:connector-curvature="0" /><path
           d="m 340.06,216.033 c 1.21,0.09 2.448,0.207 3.681,0.35 25.973,2.996 42.372,9.265 51.61,19.73 8.186,9.274 10.686,22.095 12.903,36.67 1.272,8.37 -0.233,17.091 -4.241,24.557 l -3.432,6.393 c -6.883,12.822 -20.132,20.779 -34.575,20.766 -12.418,-0.011 -24.238,-0.424 -35.134,-1.228 -8.986,-0.663 -17.481,-1.603 -25.251,-2.795 -9.145,-1.402 -17.561,-6.127 -23.696,-13.305 -8.514,-9.96 -11.521,-23.434 -8.043,-36.046 10.753,-39.003 33.015,-57.538 66.169,-55.092 z"
           style="fill:#272727;fill-opacity:1;fill-rule:nonzero;stroke:none"
           id="path118694"
           inkscape:connector-curvature="0" /><path
           d="m 340.043,216.264 c 1.206,0.089 2.441,0.206 3.672,0.347 25.913,2.991 42.265,9.236 51.463,19.656 8.144,9.225 10.636,22.012 12.847,36.551 1.266,8.321 -0.232,16.99 -4.215,24.412 l -3.432,6.394 c -6.843,12.747 -20.014,20.657 -34.371,20.644 -12.412,-0.011 -24.228,-0.424 -35.118,-1.227 -8.98,-0.663 -17.469,-1.602 -25.233,-2.793 -9.091,-1.394 -17.457,-6.091 -23.555,-13.227 -8.464,-9.901 -11.454,-23.297 -7.997,-35.834 10.72,-38.881 32.902,-57.36 65.93,-54.923 z"
           style="fill:#232323;fill-opacity:1;fill-rule:nonzero;stroke:none"
           id="path118696"
           inkscape:connector-curvature="0" /><path
           d="m 340.025,216.494 c 1.204,0.089 2.436,0.206 3.663,0.347 25.853,2.982 42.16,9.204 51.316,19.578 8.103,9.179 10.588,21.931 12.793,36.434 1.258,8.272 -0.231,16.89 -4.192,24.268 l -3.431,6.394 c -6.802,12.672 -19.895,20.535 -34.167,20.522 -12.406,-0.011 -24.216,-0.423 -35.101,-1.226 -8.974,-0.663 -17.458,-1.602 -25.215,-2.791 -9.037,-1.386 -17.352,-6.055 -23.416,-13.149 -8.413,-9.843 -11.384,-23.16 -7.948,-35.623 10.686,-38.76 32.787,-57.182 65.691,-54.755 z"
           style="fill:#202020;fill-opacity:1;fill-rule:nonzero;stroke:none"
           id="path118698"
           inkscape:connector-curvature="0" /><path
           d="m 340.009,216.725 c 1.2,0.088 2.429,0.205 3.653,0.345 25.793,2.976 42.052,9.173 51.169,19.502 8.062,9.131 10.538,21.85 12.737,36.316 1.251,8.222 -0.228,16.789 -4.166,24.124 l -3.431,6.393 c -6.762,12.597 -19.777,20.414 -33.964,20.401 -12.4,-0.011 -24.204,-0.423 -35.084,-1.226 -8.968,-0.661 -17.445,-1.6 -25.197,-2.789 -8.982,-1.376 -17.247,-6.018 -23.275,-13.07 -8.363,-9.784 -11.317,-23.022 -7.902,-35.412 10.653,-38.638 32.674,-57.003 65.451,-54.585 z"
           style="fill:#1c1c1c;fill-opacity:1;fill-rule:nonzero;stroke:none"
           id="path118700"
           inkscape:connector-curvature="0" /><path
           d="m 339.991,216.955 c 1.197,0.088 2.424,0.204 3.645,0.345 25.732,2.969 41.945,9.141 51.022,19.425 8.02,9.085 10.488,21.768 12.682,36.197 1.244,8.174 -0.228,16.69 -4.141,23.981 l -3.431,6.393 c -6.722,12.521 -19.659,20.292 -33.761,20.279 -12.394,-0.011 -24.192,-0.423 -35.068,-1.225 -8.96,-0.661 -17.432,-1.599 -25.178,-2.787 -8.927,-1.368 -17.143,-5.982 -23.134,-12.992 -8.314,-9.726 -11.25,-22.885 -7.856,-35.2 10.621,-38.517 32.56,-56.826 65.212,-54.417 z"
           style="fill:#181818;fill-opacity:1;fill-rule:nonzero;stroke:none"
           id="path118702"
           inkscape:connector-curvature="0" /><path
           d="m 339.975,217.186 c 1.194,0.087 2.417,0.203 3.634,0.343 25.672,2.962 41.839,9.11 50.876,19.349 7.978,9.037 10.439,21.686 12.627,36.079 1.236,8.124 -0.226,16.589 -4.117,23.836 l -3.432,6.394 c -6.68,12.446 -19.539,20.17 -33.556,20.157 -12.387,-0.011 -24.18,-0.423 -35.05,-1.224 -8.956,-0.661 -17.421,-1.598 -25.161,-2.786 -8.872,-1.359 -17.038,-5.945 -22.993,-12.913 -8.265,-9.668 -11.183,-22.748 -7.809,-34.989 10.586,-38.396 32.445,-56.647 64.972,-54.247 z"
           style="fill:#151515;fill-opacity:1;fill-rule:nonzero;stroke:none"
           id="path118704"
           inkscape:connector-curvature="0" /><path
           d="m 339.957,217.415 c 1.191,0.088 2.411,0.204 3.626,0.344 25.612,2.955 41.732,9.078 50.729,19.271 7.937,8.991 10.389,21.606 12.572,35.962 1.228,8.075 -0.226,16.488 -4.092,23.692 l -3.432,6.394 c -6.64,12.371 -19.421,20.047 -33.352,20.035 -12.382,-0.01 -24.169,-0.422 -35.034,-1.223 -8.951,-0.661 -17.41,-1.597 -25.143,-2.784 -8.817,-1.351 -16.934,-5.909 -22.852,-12.835 -8.215,-9.609 -11.116,-22.61 -7.762,-34.778 10.553,-38.274 32.332,-56.469 64.732,-54.078 z"
           style="fill:#121212;fill-opacity:1;fill-rule:nonzero;stroke:none"
           id="path118706"
           inkscape:connector-curvature="0" /><path
           d="m 339.94,217.646 c 1.189,0.087 2.405,0.203 3.617,0.342 25.551,2.948 41.625,9.047 50.582,19.196 7.895,8.942 10.34,21.524 12.516,35.842 1.221,8.026 -0.223,16.389 -4.066,23.549 l -3.433,6.393 c -6.599,12.296 -19.302,19.927 -33.148,19.914 -12.375,-0.01 -24.156,-0.422 -35.017,-1.223 -8.944,-0.659 -17.397,-1.596 -25.125,-2.781 -8.763,-1.343 -16.829,-5.874 -22.713,-12.757 -8.164,-9.551 -11.048,-22.473 -7.714,-34.566 10.52,-38.154 32.218,-56.291 64.494,-53.91 z"
           style="fill:#0e0e0e;fill-opacity:1;fill-rule:nonzero;stroke:none"
           id="path118708"
           inkscape:connector-curvature="0" /><path
           d="m 339.924,217.876 c 1.184,0.088 2.397,0.202 3.606,0.342 25.492,2.94 41.519,9.015 50.436,19.118 7.853,8.895 10.29,21.443 12.461,35.725 1.214,7.977 -0.222,16.289 -4.042,23.405 l -3.432,6.393 c -6.559,12.221 -19.183,19.805 -32.945,19.792 -12.369,-0.01 -24.145,-0.422 -35,-1.222 -8.939,-0.659 -17.385,-1.595 -25.107,-2.78 -8.709,-1.334 -16.724,-5.836 -22.572,-12.678 -8.114,-9.493 -10.98,-22.335 -7.667,-34.355 10.486,-38.032 32.104,-56.112 64.253,-53.741 z"
           style="fill:#0b0b0b;fill-opacity:1;fill-rule:nonzero;stroke:none"
           id="path118710"
           inkscape:connector-curvature="0" /><path
           d="m 339.906,218.106 c 1.182,0.087 2.392,0.203 3.598,0.341 25.432,2.934 41.412,8.985 50.288,19.042 7.812,8.849 10.241,21.362 12.406,35.607 1.206,7.927 -0.22,16.188 -4.016,23.26 l -3.432,6.394 c -6.52,12.146 -19.065,19.683 -32.742,19.67 -12.362,-0.01 -24.133,-0.421 -34.984,-1.221 -8.931,-0.659 -17.373,-1.594 -25.088,-2.778 -8.654,-1.326 -16.62,-5.8 -22.431,-12.6 -8.065,-9.435 -10.913,-22.198 -7.62,-34.144 10.452,-37.91 31.989,-55.934 64.013,-53.572 z"
           style="fill:#070707;fill-opacity:1;fill-rule:nonzero;stroke:none"
           id="path118712"
           inkscape:connector-curvature="0" /><path
           d="m 339.89,218.337 c 1.178,0.087 2.385,0.201 3.588,0.339 25.371,2.928 41.304,8.954 50.141,18.966 7.771,8.801 10.191,21.28 12.352,35.488 1.198,7.879 -0.22,16.089 -3.992,23.117 l -3.433,6.394 c -6.479,12.07 -18.946,19.56 -32.537,19.548 -12.358,-0.01 -24.122,-0.42 -34.967,-1.221 -8.927,-0.658 -17.361,-1.592 -25.071,-2.775 -8.599,-1.318 -16.515,-5.765 -22.29,-12.522 -8.015,-9.376 -10.846,-22.061 -7.574,-33.932 10.419,-37.79 31.875,-55.757 63.774,-53.403 z"
           style="fill:#040404;fill-opacity:1;fill-rule:nonzero;stroke:none"
           id="path118714"
           inkscape:connector-curvature="0" /><path
           d="m 339.873,218.566 c 1.175,0.087 2.379,0.202 3.577,0.339 25.313,2.921 41.199,8.923 49.996,18.89 7.729,8.754 10.141,21.198 12.296,35.37 1.191,7.83 -0.219,15.988 -3.968,22.973 l -3.431,6.393 c -6.439,11.995 -18.829,19.439 -32.334,19.427 -12.351,-0.01 -24.11,-0.42 -34.95,-1.22 -8.92,-0.658 -17.349,-1.591 -25.053,-2.773 -8.544,-1.31 -16.41,-5.729 -22.151,-12.444 -7.964,-9.318 -10.777,-21.923 -7.525,-33.721 10.386,-37.667 31.761,-55.577 63.534,-53.234 z"
           style="fill:#000000;fill-opacity:1;fill-rule:nonzero;stroke:none"
           id="path118716"
           inkscape:connector-curvature="0" /><g
           id="g118718"><g
             id="g118720"><g
               id="g118726"><g
                 id="g118728"><path
                   d="m 339.873,218.566 c 1.175,0.087 2.379,0.202 3.577,0.339 25.313,2.921 41.199,8.923 49.996,18.89 7.729,8.754 10.141,21.198 12.296,35.37 1.191,7.83 -0.219,15.988 -3.968,22.973 l -3.431,6.393 c -6.439,11.995 -18.829,19.439 -32.334,19.427 -12.351,-0.01 -24.11,-0.42 -34.95,-1.22 -8.92,-0.658 -17.349,-1.591 -25.053,-2.773 -8.544,-1.31 -16.41,-5.729 -22.151,-12.444 -7.964,-9.318 -10.777,-21.923 -7.525,-33.721 10.386,-37.667 31.761,-55.577 63.534,-53.234 z"
                   style="fill:url(#linearGradient118734);stroke:none"
                   id="path118736"
                   inkscape:connector-curvature="0" /></g></g></g></g><g
           id="g118738"><g
             id="g118740" /><g
             id="g118784"
             mask="url(#mask118760)"><g
               id="g118786" /><g
               id="g118796"><g
                 clip-path="url(#clipPath118790)"
                 id="g118794"><path
                   d="m 275.018,281.261 c -0.078,8.779 2.981,17.408 8.837,24.26 5.741,6.715 13.607,11.134 22.151,12.444 7.704,1.182 16.133,2.115 25.053,2.773 10.84,0.8 22.599,1.21 34.95,1.22 13.505,0.012 25.895,-7.432 32.334,-19.427 l 3.431,-6.393 c 3.33,-6.202 4.802,-13.328 4.259,-20.329 -30.229,-2.464 -82.72,-4.388 -131.015,5.452"
                   style="fill:#f2f2f2;fill-opacity:1;fill-rule:nonzero;stroke:none"
                   id="path118792"
                   inkscape:connector-curvature="0" /></g></g></g></g></g></g></g></svg>